<svg width="43" height="51" viewBox="0 0 43 51" fill="none" xmlns="http://www.w3.org/2000/svg">
<path d="M42.4591 25.5001C42.4591 39.1277 21.4991 50.1752 21.4991 50.1752C21.4991 50.1752 0.539062 39.1277 0.539062 25.5001C0.539062 11.8724 9.92317 0.824951 21.4991 0.824951C33.075 0.824951 42.4591 11.8724 42.4591 25.5001Z" fill="#212121"/>
<ellipse cx="21.5312" cy="35.2666" rx="5" ry="1" fill="#FEFEFE"/>
<path fill-rule="evenodd" clip-rule="evenodd" d="M25.0976 18.2615C22.9333 16.9561 20.2477 16.9339 18.0629 18.2034C15.878 19.4729 14.5298 21.8388 14.5313 24.401C14.5971 26.2826 15.2298 28.098 16.3436 29.6006C17.6746 31.4006 19.3137 32.9412 21.182 34.148C21.3006 34.22 21.4348 34.2607 21.5727 34.2666C21.716 34.2443 21.8541 34.1955 21.9801 34.1226C23.2039 33.3194 24.3311 32.373 25.3387 31.3027C27.0845 29.4566 28.4812 27.0685 28.5311 24.528C28.5432 21.9708 27.2407 19.5935 25.0976 18.2615ZM21.5229 26.9585C20.5604 26.9584 19.6929 26.3674 19.3254 25.4614C18.9579 24.5553 19.1628 23.5129 19.8446 22.8209C20.5263 22.129 21.5503 21.9238 22.4385 22.3014C23.3267 22.6789 23.9039 23.5646 23.9005 24.545C23.9027 25.1872 23.6527 25.8037 23.2061 26.2571C22.7594 26.7104 22.1534 26.963 21.5229 26.9585Z" fill="#FEFEFE"/>
</svg>
