<svg width="33" height="33" viewBox="0 0 33 33" fill="none" xmlns="http://www.w3.org/2000/svg">
<g clip-path="url(#clip0_129_1365)">
<path d="M31.8112 18.6547C32.2243 17.7713 32.0235 16.8152 31.4921 16.5679C30.9617 16.3197 27.9101 14.8962 27.9101 14.8962C28.4483 12.2402 30.312 13.3252 30.6718 12.0928C31.0315 10.8593 31.6376 9.09542 31.8635 7.68839C32.0895 6.28136 31.3884 5.51627 30.9297 5.30197C30.472 5.08864 29.4354 5.04209 28.5016 6.12039C27.5687 7.19773 26.6078 8.79676 25.8941 9.86439C25.1823 10.932 27.21 11.6622 25.5207 13.782C25.5207 13.782 22.4701 12.3585 21.9397 12.1112C21.4083 11.8629 20.5472 12.3245 20.1351 13.2089L25.9736 15.9318L31.8112 18.6547ZM28.7799 7.40039C29.0281 6.86803 29.6604 6.63918 30.1908 6.88742C30.7232 7.1347 30.952 7.76597 30.7047 8.29833C30.4575 8.82876 29.8252 9.05955 29.2938 8.8113C28.7624 8.56306 28.5326 7.93179 28.7799 7.40039Z" fill="#212121"/>
<path d="M19.1527 15.3132L30.8307 20.7585L31.5634 19.1872L19.8854 13.7418L19.1527 15.3132Z" fill="#212121"/>
<path d="M14.9384 23.0155C14.9064 22.9234 14.889 22.8294 14.8667 22.7353C14.7513 22.7353 14.6815 22.7353 14.6815 22.7353C14.6815 22.7353 11.7045 22.7353 10.5544 22.7353C9.40533 22.7353 10.3527 21.4185 11.6376 21.4185C12.9215 21.4185 14.6815 21.4185 14.6815 21.4185C14.6815 21.4185 14.7775 21.4185 14.9239 21.4185C14.9539 21.3244 14.9801 21.2303 15.0228 21.1402L15.5813 19.9426C15.0548 19.9426 14.6815 19.9426 14.6815 19.9426C14.6815 19.9426 12.7838 19.9426 11.3971 19.9426C11.0373 19.9426 10.7018 19.7525 10.4225 19.4752H15.7985L16.103 18.8187H9.94448C9.85818 18.6519 9.78933 18.4783 9.74278 18.3106H16.3425L16.649 17.6522H9.69042C9.73987 17.3768 9.90666 17.1867 10.2305 17.1867C11.4688 17.1867 14.6815 17.1867 14.6815 17.1867C14.6815 17.1867 15.7336 17.1867 16.8652 17.1867L18.1413 14.4531C16.5733 14.5705 15.24 14.5472 14.6815 14.5472C13.481 14.5472 8.73236 14.6645 5.69818 13.2284C5.67781 13.2003 5.65454 13.1731 5.63418 13.1431C6.2189 11.5964 7.79369 8.45458 9.672 8.45458H19.689C20.8904 8.45458 21.9678 9.74137 22.7396 11.0747L24.6664 11.9726C23.9246 10.2563 22.2296 7.14258 19.688 7.14258H9.67103C6.86084 7.14258 5.08048 10.9612 4.48315 12.472C4.11466 12.1259 3.57842 11.8475 2.81236 11.8475C2.81236 11.8475 2.248 11.8475 1.80484 11.8475C1.36266 11.8475 0.999996 11.9697 0.999996 12.8948C0.999996 13.6764 1.29284 14.0837 2.69018 14.1923C2.13648 14.7751 1.69333 15.5595 1.69333 16.5903C1.69333 19.3617 1.69333 19.9465 1.69333 21.113C1.69333 22.0168 1.78739 23.4403 3.24872 24.0415V25.6357C3.24872 26.1205 3.64048 26.5123 4.12533 26.5123H7.7006C8.18254 26.5123 8.5743 26.1205 8.5743 25.6357V24.3227C11.5406 24.3227 14.6805 24.3227 14.6805 24.3227C14.6805 24.3227 15.2264 24.3227 16.073 24.3227C15.5484 24.0337 15.145 23.5819 14.9384 23.0155ZM7.29236 22.7353C6.78521 22.7353 5.87854 22.7353 5.43636 22.7353C4.80024 22.7353 3.79175 21.5688 4.53648 21.5688C4.96024 21.5688 5.48678 21.5688 6.14812 21.5688C6.75418 21.5688 7.18763 22.0158 7.42909 22.3552C7.58036 22.5646 7.64824 22.7353 7.29236 22.7353ZM8.03806 18.5559C7.16048 18.5559 5.40242 18.5559 4.45018 18.5559C3.35151 18.5559 3.28945 17.6066 3.88872 16.8541C4.42206 16.1869 5.8669 16.1908 6.7949 16.5506C8.77115 17.3166 8.91757 18.5559 8.03806 18.5559Z" fill="#212121"/>
<path d="M16.1825 21.6811C15.9101 22.2668 16.1631 22.965 16.7498 23.2374L17.7622 23.7087L20.1942 20.6435L19.6143 24.5737L22.5476 25.941L24.7993 23.7601L24.4783 26.8418L26.3042 27.6932C26.8899 27.9667 27.5871 27.7136 27.8606 27.1269L30.5835 21.2874L18.9054 15.8425L16.1825 21.6811Z" fill="#212121"/>
</g>
<defs>
<clipPath id="clip0_129_1365">
<rect width="32" height="32" fill="white" transform="translate(0.166668 0.179688)"/>
</clipPath>
</defs>
</svg>
