<svg width="57" height="44" viewBox="0 0 57 44" fill="none" xmlns="http://www.w3.org/2000/svg">
<path d="M53.1713 18.0195L55.0858 17.8653C55.3575 17.843 55.6093 17.7141 55.7862 17.5066C55.9631 17.2991 56.0505 17.0301 56.0295 16.7583L55.7953 13.891C55.7848 13.7566 55.7478 13.6255 55.6865 13.5053C55.6253 13.3852 55.5409 13.2783 55.4382 13.1908C55.3356 13.1033 55.2166 13.0369 55.0883 12.9955C54.9599 12.954 54.8246 12.9383 54.6902 12.9492H50.4184L45.7927 2.56184C45.4496 1.89547 44.9153 1.34672 44.2583 0.985904C43.6014 0.625092 42.8517 0.468657 42.1052 0.53663H14.8846C14.1374 0.469626 13.387 0.626409 12.7291 0.987039C12.0712 1.34767 11.5354 1.89584 11.1899 2.56184L6.56965 12.9492H2.29783C2.02632 12.9281 1.75751 13.0154 1.55009 13.1918C1.34268 13.3683 1.21353 13.6197 1.19086 13.891L0.96039 16.7583C0.93882 17.0299 1.02587 17.299 1.20243 17.5065C1.37899 17.714 1.63065 17.843 1.90222 17.8653L3.81673 18.0195C1.63749 21.1308 0.475453 24.8406 0.490376 28.6392L0.922288 34.1287C0.958734 34.6447 1.12836 35.1425 1.41461 35.5735C1.70086 36.0045 2.09394 36.3539 2.55551 36.5876V39.4911C2.73698 43.4563 3.9855 43.4562 6.76381 43.4562C9.54213 43.4562 10.9739 43.4563 11.1609 39.4911V36.9197H28.4931H45.6747V39.4875C45.8562 43.4526 47.1029 43.4526 49.883 43.4526C52.6632 43.4526 54.0931 43.4526 54.2782 39.4875V36.584C54.7573 36.3568 55.1711 36.0123 55.4814 35.5824C55.7917 35.1525 55.9883 34.6512 56.053 34.125L56.4922 28.6355C56.508 24.8388 55.3479 21.1304 53.1713 18.0195ZM18.5884 30.4865C18.588 30.759 18.4796 31.0201 18.2872 31.2129C18.0947 31.4057 17.8337 31.5145 17.5613 31.5155H7.4407C7.30543 31.5157 7.17144 31.4893 7.04639 31.4377C6.92135 31.3861 6.8077 31.3103 6.71196 31.2148C6.61623 31.1192 6.54027 31.0057 6.48845 30.8807C6.43663 30.7558 6.40995 30.6218 6.40995 30.4865V26.7845C6.40947 26.6491 6.43581 26.515 6.48747 26.3898C6.53912 26.2646 6.61505 26.1509 6.71088 26.0552C6.80672 25.9596 6.92056 25.8839 7.04583 25.8324C7.17109 25.781 7.30529 25.7549 7.4407 25.7556L17.5613 26.5776C17.8334 26.5786 18.0941 26.6871 18.2865 26.8796C18.479 27.072 18.5875 27.3327 18.5884 27.6048V30.4865ZM9.69639 16.0052L14.6723 4.55983H42.3139L47.288 16.0052H9.70002H9.69639ZM50.5817 30.4865C50.5817 30.7594 50.4733 31.0211 50.2803 31.2141C50.0874 31.4071 49.8257 31.5155 49.5528 31.5155H39.4321C39.1594 31.515 38.898 31.4064 38.7051 31.2136C38.5122 31.0207 38.4037 30.7593 38.4032 30.4865V27.6048C38.4046 27.3325 38.5136 27.0718 38.7063 26.8794C38.899 26.6871 39.1599 26.5786 39.4321 26.5776L49.5528 25.7556C49.688 25.7551 49.822 25.7814 49.9471 25.8329C50.0721 25.8845 50.1857 25.9603 50.2814 26.0559C50.377 26.1516 50.4528 26.2652 50.5043 26.3902C50.5559 26.5153 50.5822 26.6493 50.5817 26.7845V30.4865Z" fill="#212121"/>
</svg>
