<svg width="25" height="24" viewBox="0 0 25 24" fill="none" xmlns="http://www.w3.org/2000/svg">
<path d="M5.33333 13H8.33333M2.33333 9L4.33333 10L5.60397 6.18807C5.86625 5.40125 5.99738 5.00784 6.24062 4.71698C6.45541 4.46013 6.73125 4.26132 7.04284 4.13878C7.39569 4 7.81038 4 8.63976 4H16.0269C16.8563 4 17.2709 4 17.6238 4.13878C17.9354 4.26132 18.2112 4.46013 18.426 4.71698C18.6692 5.00784 18.8004 5.40125 19.0627 6.18807L20.3333 10L22.3333 9M16.3333 13H19.3333M7.13333 10H17.5333C19.2135 10 20.0535 10 20.6953 10.327C21.2598 10.6146 21.7187 11.0735 22.0063 11.638C22.3333 12.2798 22.3333 13.1198 22.3333 14.8V17.5C22.3333 17.9647 22.3333 18.197 22.2949 18.3902C22.1371 19.1836 21.5169 19.8038 20.7235 19.9616C20.5303 20 20.298 20 19.8333 20H19.3333C18.2287 20 17.3333 19.1046 17.3333 18C17.3333 17.7239 17.1094 17.5 16.8333 17.5H7.83333C7.55719 17.5 7.33333 17.7239 7.33333 18C7.33333 19.1046 6.4379 20 5.33333 20H4.83333C4.36867 20 4.13635 20 3.94315 19.9616C3.14977 19.8038 2.52957 19.1836 2.37176 18.3902C2.33333 18.197 2.33333 17.9647 2.33333 17.5V14.8C2.33333 13.1198 2.33333 12.2798 2.66031 11.638C2.94793 11.0735 3.40687 10.6146 3.97136 10.327C4.61309 10 5.45317 10 7.13333 10Z" stroke="#212121" stroke-width="2" stroke-linecap="round" stroke-linejoin="round"/>
</svg>
