<svg width="101" height="100" viewBox="0 0 101 100" fill="none" xmlns="http://www.w3.org/2000/svg">
<path d="M50.5 87.5C71.2107 87.5 88 70.7107 88 50C88 29.2893 71.2107 12.5 50.5 12.5C29.7893 12.5 13 29.2893 13 50C13 70.7107 29.7893 87.5 50.5 87.5Z" fill="#FED046"/>
<path d="M38 41.6666L51.5754 51.8482C53.3192 53.1557 55.7758 52.8987 57.2112 51.2587L83.8333 20.8333" stroke="#212121" stroke-width="4" stroke-linecap="round"/>
<path d="M88 50C88 57.8354 85.5458 65.4738 80.9817 71.8429C76.4179 78.2121 69.9733 82.9913 62.5542 85.51C55.1346 88.0283 47.1125 88.1596 39.6143 85.8854C32.1163 83.6108 25.5191 79.0446 20.7493 72.8288C15.9794 66.6125 13.2765 59.0583 13.0201 51.2271C12.7637 43.3958 14.9668 35.681 19.3199 29.1661C23.673 22.6513 29.9575 17.6636 37.2906 14.9036C44.6238 12.1435 52.6375 11.7498 60.2058 13.7778" stroke="#212121" stroke-width="4" stroke-linecap="round"/>
</svg>
