<svg width="61" height="56" viewBox="0 0 61 56" fill="none" xmlns="http://www.w3.org/2000/svg">
<path d="M46.3077 1.5896C44.2103 1.5896 42.5103 3.28958 42.5103 5.38696V11.1823L2.5166 11.2155V5.42008C2.5166 3.3227 4.21658 1.62272 6.31396 1.62272L6.51266 1.5896H46.3077Z" fill="#FEFEFE"/>
<path d="M14.3174 54.3993C12.22 54.3993 10.52 52.6993 10.52 50.602V5.39794C10.52 3.30057 8.82003 1.60059 6.72266 1.60059H46.7164C48.8137 1.60059 50.5137 3.30057 50.5137 5.39794V44.8066" fill="#FEFEFE"/>
<path d="M14.7148 54.3994C16.8122 54.3994 18.5122 52.6994 18.5122 50.602V44.8066H58.5059V50.602C58.5059 52.6994 56.8059 54.3994 54.7085 54.3994H14.7148Z" fill="#FEFEFE"/>
<path d="M41.716 11.1934H19.3182C18.8767 11.1934 18.5234 11.5466 18.5234 11.9882C18.5234 12.4297 18.8767 12.783 19.3182 12.783H41.716C42.1576 12.783 42.5108 12.4297 42.5108 11.9882C42.5108 11.5466 42.1576 11.1934 41.716 11.1934ZM41.716 15.9953H19.3182C18.8767 15.9953 18.5234 16.3485 18.5234 16.79C18.5234 17.2316 18.8767 17.5848 19.3182 17.5848H41.716C42.1576 17.5848 42.5108 17.2316 42.5108 16.79C42.5108 16.3485 42.1576 15.9953 41.716 15.9953ZM41.716 20.7971H19.3182C18.8767 20.7971 18.5234 21.1504 18.5234 21.5919C18.5234 22.0335 18.8767 22.3867 19.3182 22.3867H41.716C42.1576 22.3867 42.5108 22.0335 42.5108 21.5919C42.5108 21.1504 42.1576 20.7971 41.716 20.7971ZM41.716 25.588H19.3182C18.8767 25.588 18.5234 25.9412 18.5234 26.3828C18.5234 26.8243 18.8767 27.1776 19.3182 27.1776H41.716C42.1576 27.1776 42.5108 26.8243 42.5108 26.3828C42.5108 25.9523 42.1576 25.588 41.716 25.588ZM41.716 30.3899H19.3182C18.8767 30.3899 18.5234 30.7431 18.5234 31.1847C18.5234 31.6262 18.8767 31.9795 19.3182 31.9795H41.716C42.1576 31.9795 42.5108 31.6262 42.5108 31.1847C42.5108 30.7542 42.1576 30.3899 41.716 30.3899ZM41.716 35.1918H19.3182C18.8767 35.1918 18.5234 35.545 18.5234 35.9866C18.5234 36.4281 18.8767 36.7814 19.3182 36.7814H41.716C42.1576 36.7814 42.5108 36.4281 42.5108 35.9866C42.5108 35.545 42.1576 35.1918 41.716 35.1918Z" fill="#212121"/>
<path d="M58.5059 43.195H52.1034V5.39799C52.1034 2.4175 49.6859 0 46.7054 0H6.13768C3.22343 0.0772718 0.905273 2.50582 0.905273 5.43111V11.2265C0.905273 11.646 1.07086 12.0544 1.3689 12.3635C1.66695 12.6615 2.07539 12.8271 2.49487 12.8271H8.89739V50.602C8.89739 53.5825 11.3149 56 14.2954 56C14.3616 56 14.4278 55.989 14.4941 55.9779C14.5603 55.989 14.6265 56 14.6928 56H54.6975C57.678 56 60.0955 53.5825 60.0955 50.602V44.8066C60.1065 43.9125 59.4 43.195 58.5059 43.195ZM4.11757 9.62586V5.43111C4.11757 3.02464 6.64547 3.20126 6.64547 3.20126H6.72274C7.93701 3.20126 8.91947 4.18372 8.91947 5.39799V9.62586H4.11757ZM16.9116 44.7956V50.591C16.9116 51.8052 15.9291 52.7877 14.7149 52.7877C14.6486 52.7877 14.5824 52.7987 14.5162 52.8098C14.4499 52.7987 14.3837 52.7877 14.3175 52.7877C13.1032 52.7877 12.1207 51.8052 12.1207 50.591V5.39799C12.1207 4.61423 11.9551 3.87463 11.6571 3.20126H46.7164C47.9307 3.20126 48.9132 4.18372 48.9132 5.39799V43.206H18.5122C17.6291 43.195 16.9116 43.9125 16.9116 44.7956ZM56.9053 50.602C56.9053 51.8163 55.9228 52.7987 54.7085 52.7987H19.6382C19.9362 52.1254 20.1018 51.3858 20.1018 50.602V46.4072H56.9053V50.602Z" fill="#212121"/>
</svg>
