<svg width="25" height="24" viewBox="0 0 25 24" fill="none" xmlns="http://www.w3.org/2000/svg">
<mask id="path-1-outside-1_364_2417" maskUnits="userSpaceOnUse" x="1.14551" y="1.4375" width="23" height="21" fill="black">
<rect fill="white" x="1.14551" y="1.4375" width="23" height="21"/>
<path d="M23.4343 15.9825L23.273 15.5363C23.1542 15.2274 22.9329 14.9688 22.6462 14.8036C22.3595 14.6384 22.0248 14.5767 21.698 14.6288C21.6793 14.6325 21.6643 14.6325 21.6455 14.6363V5.0625C21.6455 5.05875 21.6418 5.055 21.6418 5.0475C21.6416 5.00891 21.6339 4.97071 21.6193 4.935C21.6173 4.92612 21.6148 4.91735 21.6118 4.90875C21.608 4.905 21.608 4.8975 21.6043 4.89375L20.4793 2.64375C20.4485 2.58158 20.4009 2.52929 20.3419 2.49283C20.2829 2.45636 20.2149 2.4372 20.1455 2.4375H10.0205C9.95874 2.43782 9.89801 2.45339 9.84371 2.48283C9.78941 2.51227 9.74323 2.55467 9.70926 2.60625L8.20926 4.85625C8.19957 4.86869 8.19197 4.88263 8.18676 4.8975C8.18301 4.90875 8.17551 4.91625 8.17176 4.9275C8.15764 4.96872 8.14882 5.01156 8.14551 5.055V12.345C8.08926 12.3525 8.03301 12.36 7.97676 12.3713L6.44676 12.7163V11.4375C6.44616 11.2388 6.36696 11.0484 6.22643 10.9078C6.08591 10.7673 5.89549 10.6881 5.69676 10.6875H2.89551C2.69678 10.6881 2.50636 10.7673 2.36583 10.9078C2.22531 11.0484 2.1461 11.2388 2.14551 11.4375V20.8125C2.1461 21.0112 2.22531 21.2017 2.36583 21.3422C2.50636 21.4827 2.69678 21.5619 2.89551 21.5625H5.69676C5.89549 21.5619 6.08591 21.4827 6.22643 21.3422C6.36696 21.2017 6.44616 21.0112 6.44676 20.8125V19.8338L12.6455 20.955C13.5274 21.1173 14.4372 21.0276 15.2705 20.6963L22.5905 17.7975C22.9415 17.6666 23.2268 17.4028 23.3847 17.0631C23.5426 16.7234 23.5604 16.3352 23.4343 15.9825ZM5.69676 20.8125H2.89551V11.4375H5.69676V20.8125ZM16.7705 3.1875H19.913L20.663 4.6875H16.7705V3.1875ZM13.7705 3.1875H16.0205V4.6875H13.7705V3.1875ZM13.7705 5.4375H16.0205V9.9375L15.1205 9.2625C15.0556 9.21382 14.9766 9.1875 14.8955 9.1875C14.8144 9.1875 14.7354 9.21382 14.6705 9.2625L13.7705 9.9375V5.4375ZM10.223 3.1875H13.0205V4.6875H9.22176L10.223 3.1875ZM8.89551 5.4375H13.0205V10.6875C13.0197 10.757 13.0387 10.8252 13.0752 10.8843C13.1117 10.9434 13.1643 10.9909 13.2268 11.0213C13.289 11.0528 13.3589 11.0664 13.4284 11.0605C13.498 11.0545 13.5645 11.0292 13.6205 10.9875L14.8955 10.0313L16.1705 10.9875C16.2358 11.0355 16.3145 11.0617 16.3955 11.0625C16.4544 11.0636 16.5125 11.0494 16.5643 11.0213C16.6267 10.9909 16.6793 10.9434 16.7158 10.8843C16.7523 10.8252 16.7713 10.757 16.7705 10.6875V5.4375H20.8955V14.73C20.708 14.7563 20.5168 14.7863 20.333 14.82C19.9543 14.88 19.5605 14.9475 19.178 14.985C18.3029 15.084 17.4223 15.1253 16.5418 15.1088C15.8 15.0849 15.0601 15.0198 14.3255 14.9138C14.3578 14.6534 14.3149 14.3892 14.2018 14.1525C14.1072 13.9625 13.9734 13.7947 13.8092 13.6603C13.645 13.5258 13.4542 13.4277 13.2493 13.3725L9.69426 12.4088C9.43339 12.3387 9.16543 12.2985 8.89551 12.2888V5.4375ZM22.313 17.1L14.9968 19.9988C14.2932 20.2783 13.525 20.3537 12.7805 20.2163L6.44676 19.0725V13.485L8.14176 13.1025C8.58994 13.0017 9.05596 13.012 9.49926 13.1325L13.0505 14.0963C13.1524 14.1229 13.2474 14.1707 13.3295 14.2366C13.4116 14.3025 13.4788 14.385 13.5268 14.4788C13.5674 14.5626 13.5895 14.6543 13.5914 14.7475C13.5934 14.8407 13.5752 14.9333 13.538 15.0188C13.472 15.1607 13.3639 15.279 13.2284 15.3575C13.0929 15.436 12.9365 15.4709 12.7805 15.4575L9.69801 14.82C9.60054 14.7996 9.49897 14.8188 9.41563 14.8733C9.33229 14.9278 9.27402 15.0132 9.25363 15.1106C9.23324 15.2081 9.25241 15.3097 9.30691 15.393C9.36141 15.4763 9.44679 15.5346 9.54426 15.555L12.6493 16.1963C12.6613 16.2005 12.674 16.2031 12.6868 16.2038C12.7393 16.2075 12.788 16.2113 12.8368 16.2113C13.0677 16.2115 13.2958 16.1594 13.5036 16.0587C13.7115 15.958 13.8938 15.8114 14.0368 15.63C14.8591 15.7549 15.688 15.8313 16.5193 15.8588C17.4336 15.876 18.348 15.8334 19.2568 15.7313C19.6618 15.69 20.0668 15.6225 20.4568 15.5588C20.8843 15.4875 21.3268 15.4125 21.7618 15.375C21.9237 15.345 22.0911 15.3701 22.2372 15.4462C22.3833 15.5223 22.4997 15.6451 22.568 15.795L22.7293 16.2375C22.7876 16.4071 22.7766 16.5929 22.6986 16.7544C22.6207 16.9159 22.4821 17.0401 22.313 17.1Z"/>
</mask>
<path d="M23.4343 15.9825L23.273 15.5363C23.1542 15.2274 22.9329 14.9688 22.6462 14.8036C22.3595 14.6384 22.0248 14.5767 21.698 14.6288C21.6793 14.6325 21.6643 14.6325 21.6455 14.6363V5.0625C21.6455 5.05875 21.6418 5.055 21.6418 5.0475C21.6416 5.00891 21.6339 4.97071 21.6193 4.935C21.6173 4.92612 21.6148 4.91735 21.6118 4.90875C21.608 4.905 21.608 4.8975 21.6043 4.89375L20.4793 2.64375C20.4485 2.58158 20.4009 2.52929 20.3419 2.49283C20.2829 2.45636 20.2149 2.4372 20.1455 2.4375H10.0205C9.95874 2.43782 9.89801 2.45339 9.84371 2.48283C9.78941 2.51227 9.74323 2.55467 9.70926 2.60625L8.20926 4.85625C8.19957 4.86869 8.19197 4.88263 8.18676 4.8975C8.18301 4.90875 8.17551 4.91625 8.17176 4.9275C8.15764 4.96872 8.14882 5.01156 8.14551 5.055V12.345C8.08926 12.3525 8.03301 12.36 7.97676 12.3713L6.44676 12.7163V11.4375C6.44616 11.2388 6.36696 11.0484 6.22643 10.9078C6.08591 10.7673 5.89549 10.6881 5.69676 10.6875H2.89551C2.69678 10.6881 2.50636 10.7673 2.36583 10.9078C2.22531 11.0484 2.1461 11.2388 2.14551 11.4375V20.8125C2.1461 21.0112 2.22531 21.2017 2.36583 21.3422C2.50636 21.4827 2.69678 21.5619 2.89551 21.5625H5.69676C5.89549 21.5619 6.08591 21.4827 6.22643 21.3422C6.36696 21.2017 6.44616 21.0112 6.44676 20.8125V19.8338L12.6455 20.955C13.5274 21.1173 14.4372 21.0276 15.2705 20.6963L22.5905 17.7975C22.9415 17.6666 23.2268 17.4028 23.3847 17.0631C23.5426 16.7234 23.5604 16.3352 23.4343 15.9825ZM5.69676 20.8125H2.89551V11.4375H5.69676V20.8125ZM16.7705 3.1875H19.913L20.663 4.6875H16.7705V3.1875ZM13.7705 3.1875H16.0205V4.6875H13.7705V3.1875ZM13.7705 5.4375H16.0205V9.9375L15.1205 9.2625C15.0556 9.21382 14.9766 9.1875 14.8955 9.1875C14.8144 9.1875 14.7354 9.21382 14.6705 9.2625L13.7705 9.9375V5.4375ZM10.223 3.1875H13.0205V4.6875H9.22176L10.223 3.1875ZM8.89551 5.4375H13.0205V10.6875C13.0197 10.757 13.0387 10.8252 13.0752 10.8843C13.1117 10.9434 13.1643 10.9909 13.2268 11.0213C13.289 11.0528 13.3589 11.0664 13.4284 11.0605C13.498 11.0545 13.5645 11.0292 13.6205 10.9875L14.8955 10.0313L16.1705 10.9875C16.2358 11.0355 16.3145 11.0617 16.3955 11.0625C16.4544 11.0636 16.5125 11.0494 16.5643 11.0213C16.6267 10.9909 16.6793 10.9434 16.7158 10.8843C16.7523 10.8252 16.7713 10.757 16.7705 10.6875V5.4375H20.8955V14.73C20.708 14.7563 20.5168 14.7863 20.333 14.82C19.9543 14.88 19.5605 14.9475 19.178 14.985C18.3029 15.084 17.4223 15.1253 16.5418 15.1088C15.8 15.0849 15.0601 15.0198 14.3255 14.9138C14.3578 14.6534 14.3149 14.3892 14.2018 14.1525C14.1072 13.9625 13.9734 13.7947 13.8092 13.6603C13.645 13.5258 13.4542 13.4277 13.2493 13.3725L9.69426 12.4088C9.43339 12.3387 9.16543 12.2985 8.89551 12.2888V5.4375ZM22.313 17.1L14.9968 19.9988C14.2932 20.2783 13.525 20.3537 12.7805 20.2163L6.44676 19.0725V13.485L8.14176 13.1025C8.58994 13.0017 9.05596 13.012 9.49926 13.1325L13.0505 14.0963C13.1524 14.1229 13.2474 14.1707 13.3295 14.2366C13.4116 14.3025 13.4788 14.385 13.5268 14.4788C13.5674 14.5626 13.5895 14.6543 13.5914 14.7475C13.5934 14.8407 13.5752 14.9333 13.538 15.0188C13.472 15.1607 13.3639 15.279 13.2284 15.3575C13.0929 15.436 12.9365 15.4709 12.7805 15.4575L9.69801 14.82C9.60054 14.7996 9.49897 14.8188 9.41563 14.8733C9.33229 14.9278 9.27402 15.0132 9.25363 15.1106C9.23324 15.2081 9.25241 15.3097 9.30691 15.393C9.36141 15.4763 9.44679 15.5346 9.54426 15.555L12.6493 16.1963C12.6613 16.2005 12.674 16.2031 12.6868 16.2038C12.7393 16.2075 12.788 16.2113 12.8368 16.2113C13.0677 16.2115 13.2958 16.1594 13.5036 16.0587C13.7115 15.958 13.8938 15.8114 14.0368 15.63C14.8591 15.7549 15.688 15.8313 16.5193 15.8588C17.4336 15.876 18.348 15.8334 19.2568 15.7313C19.6618 15.69 20.0668 15.6225 20.4568 15.5588C20.8843 15.4875 21.3268 15.4125 21.7618 15.375C21.9237 15.345 22.0911 15.3701 22.2372 15.4462C22.3833 15.5223 22.4997 15.6451 22.568 15.795L22.7293 16.2375C22.7876 16.4071 22.7766 16.5929 22.6986 16.7544C22.6207 16.9159 22.4821 17.0401 22.313 17.1Z" fill="black"/>
<path d="M23.4343 15.9825L23.273 15.5363C23.1542 15.2274 22.9329 14.9688 22.6462 14.8036C22.3595 14.6384 22.0248 14.5767 21.698 14.6288C21.6793 14.6325 21.6643 14.6325 21.6455 14.6363V5.0625C21.6455 5.05875 21.6418 5.055 21.6418 5.0475C21.6416 5.00891 21.6339 4.97071 21.6193 4.935C21.6173 4.92612 21.6148 4.91735 21.6118 4.90875C21.608 4.905 21.608 4.8975 21.6043 4.89375L20.4793 2.64375C20.4485 2.58158 20.4009 2.52929 20.3419 2.49283C20.2829 2.45636 20.2149 2.4372 20.1455 2.4375H10.0205C9.95874 2.43782 9.89801 2.45339 9.84371 2.48283C9.78941 2.51227 9.74323 2.55467 9.70926 2.60625L8.20926 4.85625C8.19957 4.86869 8.19197 4.88263 8.18676 4.8975C8.18301 4.90875 8.17551 4.91625 8.17176 4.9275C8.15764 4.96872 8.14882 5.01156 8.14551 5.055V12.345C8.08926 12.3525 8.03301 12.36 7.97676 12.3713L6.44676 12.7163V11.4375C6.44616 11.2388 6.36696 11.0484 6.22643 10.9078C6.08591 10.7673 5.89549 10.6881 5.69676 10.6875H2.89551C2.69678 10.6881 2.50636 10.7673 2.36583 10.9078C2.22531 11.0484 2.1461 11.2388 2.14551 11.4375V20.8125C2.1461 21.0112 2.22531 21.2017 2.36583 21.3422C2.50636 21.4827 2.69678 21.5619 2.89551 21.5625H5.69676C5.89549 21.5619 6.08591 21.4827 6.22643 21.3422C6.36696 21.2017 6.44616 21.0112 6.44676 20.8125V19.8338L12.6455 20.955C13.5274 21.1173 14.4372 21.0276 15.2705 20.6963L22.5905 17.7975C22.9415 17.6666 23.2268 17.4028 23.3847 17.0631C23.5426 16.7234 23.5604 16.3352 23.4343 15.9825ZM5.69676 20.8125H2.89551V11.4375H5.69676V20.8125ZM16.7705 3.1875H19.913L20.663 4.6875H16.7705V3.1875ZM13.7705 3.1875H16.0205V4.6875H13.7705V3.1875ZM13.7705 5.4375H16.0205V9.9375L15.1205 9.2625C15.0556 9.21382 14.9766 9.1875 14.8955 9.1875C14.8144 9.1875 14.7354 9.21382 14.6705 9.2625L13.7705 9.9375V5.4375ZM10.223 3.1875H13.0205V4.6875H9.22176L10.223 3.1875ZM8.89551 5.4375H13.0205V10.6875C13.0197 10.757 13.0387 10.8252 13.0752 10.8843C13.1117 10.9434 13.1643 10.9909 13.2268 11.0213C13.289 11.0528 13.3589 11.0664 13.4284 11.0605C13.498 11.0545 13.5645 11.0292 13.6205 10.9875L14.8955 10.0313L16.1705 10.9875C16.2358 11.0355 16.3145 11.0617 16.3955 11.0625C16.4544 11.0636 16.5125 11.0494 16.5643 11.0213C16.6267 10.9909 16.6793 10.9434 16.7158 10.8843C16.7523 10.8252 16.7713 10.757 16.7705 10.6875V5.4375H20.8955V14.73C20.708 14.7563 20.5168 14.7863 20.333 14.82C19.9543 14.88 19.5605 14.9475 19.178 14.985C18.3029 15.084 17.4223 15.1253 16.5418 15.1088C15.8 15.0849 15.0601 15.0198 14.3255 14.9138C14.3578 14.6534 14.3149 14.3892 14.2018 14.1525C14.1072 13.9625 13.9734 13.7947 13.8092 13.6603C13.645 13.5258 13.4542 13.4277 13.2493 13.3725L9.69426 12.4088C9.43339 12.3387 9.16543 12.2985 8.89551 12.2888V5.4375ZM22.313 17.1L14.9968 19.9988C14.2932 20.2783 13.525 20.3537 12.7805 20.2163L6.44676 19.0725V13.485L8.14176 13.1025C8.58994 13.0017 9.05596 13.012 9.49926 13.1325L13.0505 14.0963C13.1524 14.1229 13.2474 14.1707 13.3295 14.2366C13.4116 14.3025 13.4788 14.385 13.5268 14.4788C13.5674 14.5626 13.5895 14.6543 13.5914 14.7475C13.5934 14.8407 13.5752 14.9333 13.538 15.0188C13.472 15.1607 13.3639 15.279 13.2284 15.3575C13.0929 15.436 12.9365 15.4709 12.7805 15.4575L9.69801 14.82C9.60054 14.7996 9.49897 14.8188 9.41563 14.8733C9.33229 14.9278 9.27402 15.0132 9.25363 15.1106C9.23324 15.2081 9.25241 15.3097 9.30691 15.393C9.36141 15.4763 9.44679 15.5346 9.54426 15.555L12.6493 16.1963C12.6613 16.2005 12.674 16.2031 12.6868 16.2038C12.7393 16.2075 12.788 16.2113 12.8368 16.2113C13.0677 16.2115 13.2958 16.1594 13.5036 16.0587C13.7115 15.958 13.8938 15.8114 14.0368 15.63C14.8591 15.7549 15.688 15.8313 16.5193 15.8588C17.4336 15.876 18.348 15.8334 19.2568 15.7313C19.6618 15.69 20.0668 15.6225 20.4568 15.5588C20.8843 15.4875 21.3268 15.4125 21.7618 15.375C21.9237 15.345 22.0911 15.3701 22.2372 15.4462C22.3833 15.5223 22.4997 15.6451 22.568 15.795L22.7293 16.2375C22.7876 16.4071 22.7766 16.5929 22.6986 16.7544C22.6207 16.9159 22.4821 17.0401 22.313 17.1Z" stroke="black" stroke-width="0.6" mask="url(#path-1-outside-1_364_2417)"/>
<path d="M19.396 11.6625H19.3955L17.1455 11.6625L17.1451 11.6625C16.9067 11.6632 16.6783 11.7582 16.5098 11.9268C16.3412 12.0953 16.2462 12.3237 16.2455 12.5621H16.2455V12.5625L16.2455 13.3125L16.2455 13.3129C16.2462 13.5513 16.3412 13.7797 16.5098 13.9482C16.6783 14.1168 16.9067 14.2118 17.1451 14.2125H17.1455L19.3955 14.2125L19.396 14.2125C19.6343 14.2118 19.8627 14.1168 20.0312 13.9482C20.1998 13.7797 20.2948 13.5513 20.2955 13.3129V13.3125L20.2955 12.5625L20.2955 12.5621C20.2948 12.3237 20.1998 12.0953 20.0312 11.9268C19.8627 11.7582 19.6343 11.6632 19.396 11.6625ZM19.2455 13.1625H17.2955V12.7125H19.2455V13.1625Z" fill="black" stroke="black" stroke-width="0.3"/>
</svg>
