<svg width="24" height="24" viewBox="0 0 24 24" fill="none" xmlns="http://www.w3.org/2000/svg">
<path d="M11 19H5C3.89543 19 3 18.1046 3 17V7C3 5.89543 3.89543 5 5 5H9.58579C9.851 5 10.1054 5.10536 10.2929 5.29289L12 7H19C20.1046 7 21 7.89543 21 9V10" stroke="black" stroke-width="2" stroke-linecap="round" stroke-linejoin="round"/>
<path d="M17.2423 19.4853L16.5352 20.1924C16.9258 20.5829 17.5589 20.5829 17.9494 20.1924L17.2423 19.4853ZM17.2423 13.8285L16.5352 14.5356C16.7228 14.7231 16.9771 14.8285 17.2423 14.8285C17.5076 14.8285 17.7619 14.7231 17.9494 14.5356L17.2423 13.8285ZM15.121 15.9498C14.7305 15.5593 14.7305 14.9261 15.121 14.5356L13.7068 13.1214C12.5352 14.2929 12.5352 16.1924 13.7068 17.364L15.121 15.9498ZM17.9494 18.7782L15.121 15.9498L13.7068 17.364L16.5352 20.1924L17.9494 18.7782ZM19.3637 15.9498L16.5352 18.7782L17.9494 20.1924L20.7779 17.364L19.3637 15.9498ZM19.3637 14.5356C19.7542 14.9261 19.7542 15.5593 19.3637 15.9498L20.7779 17.364C21.9494 16.1924 21.9494 14.2929 20.7779 13.1214L19.3637 14.5356ZM17.9494 14.5356C18.34 14.145 18.9731 14.145 19.3637 14.5356L20.7779 13.1214C19.6063 11.9498 17.7068 11.9498 16.5352 13.1214L17.9494 14.5356ZM15.121 14.5356C15.5115 14.145 16.1447 14.145 16.5352 14.5356L17.9494 13.1214C16.7779 11.9498 14.8784 11.9498 13.7068 13.1214L15.121 14.5356Z" fill="black"/>
</svg>
