<svg width="17" height="16" viewBox="0 0 17 16" fill="none" xmlns="http://www.w3.org/2000/svg">
<path d="M5.79197 12.1568C5.93333 12.1568 6.04818 12.1141 6.13653 12.0287C6.22488 11.9433 6.26905 11.827 6.26905 11.6797V6.42298L6.21604 5.11541L7.17021 6.15793L8.09788 7.17395C8.13911 7.22107 8.18917 7.2564 8.24807 7.27996C8.30697 7.30352 8.37176 7.3153 8.44244 7.3153C8.57202 7.3153 8.68098 7.27113 8.76933 7.18278C8.85768 7.09443 8.90185 6.98547 8.90185 6.85589C8.90185 6.7911 8.89007 6.7322 8.86651 6.67919C8.84295 6.62618 8.81056 6.57612 8.76933 6.529L6.18954 3.86969C6.07763 3.75189 5.94511 3.69299 5.79197 3.69299C5.65061 3.69299 5.52103 3.75189 5.40323 3.86969L2.82344 6.529C2.78221 6.57612 2.74982 6.62618 2.72626 6.67919C2.7027 6.7322 2.69092 6.7911 2.69092 6.85589C2.69092 6.98547 2.73509 7.09443 2.82344 7.18278C2.91179 7.27113 3.01781 7.3153 3.1415 7.3153C3.21218 7.3153 3.27697 7.30352 3.33587 7.27996C3.39477 7.2564 3.44777 7.22107 3.49489 7.17395L4.43139 6.15793L5.35906 5.13308L5.31488 6.42298V11.6797C5.31488 11.827 5.36053 11.9433 5.45182 12.0287C5.54312 12.1141 5.6565 12.1568 5.79197 12.1568ZM11.2078 12.1568C11.3609 12.1568 11.4934 12.0979 11.6053 11.9801L14.1851 9.32966C14.2263 9.28254 14.2573 9.23248 14.2779 9.17947C14.2985 9.12646 14.3088 9.06461 14.3088 8.99394C14.3088 8.86436 14.2661 8.75687 14.1807 8.67146C14.0953 8.58606 13.9878 8.54335 13.8582 8.54335C13.7875 8.54335 13.7228 8.55514 13.6639 8.57869C13.605 8.60225 13.5549 8.63759 13.5137 8.68471L12.586 9.69189L11.6318 10.7344L11.6848 9.43568V4.17008C11.6848 4.02872 11.6407 3.91387 11.5523 3.82552C11.464 3.73717 11.3491 3.69299 11.2078 3.69299C11.0664 3.69299 10.9515 3.73717 10.8632 3.82552C10.7748 3.91387 10.7307 4.02872 10.7307 4.17008V9.43568L10.7748 10.7256L9.84718 9.6919L8.90185 8.68472C8.86062 8.6376 8.81055 8.60226 8.75165 8.5787C8.69275 8.55514 8.62796 8.54336 8.55728 8.54336C8.42771 8.54336 8.32021 8.58606 8.23481 8.67146C8.14941 8.75687 8.1067 8.86436 8.1067 8.99394C8.1067 9.06462 8.11701 9.12646 8.13763 9.17947C8.15824 9.23248 8.19211 9.28254 8.23923 9.32966L10.819 11.9801C10.9309 12.0979 11.0605 12.1568 11.2078 12.1568Z" fill="#212121"/>
</svg>
