<svg width="33" height="32" viewBox="0 0 33 32" fill="none" xmlns="http://www.w3.org/2000/svg">
<rect x="0.25" width="32" height="32" rx="15" fill="#F9E8AD"/>
<path fill-rule="evenodd" clip-rule="evenodd" d="M16.25 7.66309L24.5 11.7396V21.0098L16.25 25.0863L8 21.0098V11.7396L16.25 7.66309ZM9.5 13.4127V20.0778L15.5 23.0425V16.3774L9.5 13.4127ZM17 16.3774V23.0425L23 20.0778V13.4127L20.75 14.5245V17.4997L19.25 18.2497V15.2657L17 16.3774ZM22.057 12.2055L20.1027 13.1711C20.0599 13.1358 20.0124 13.1047 19.9606 13.0788L14.3515 10.2743L16.25 9.33621L22.057 12.2055ZM12.6645 11.1079L18.4371 13.9942L16.25 15.0749L10.443 12.2055L12.6645 11.1079Z" fill="#FED046"/>
</svg>
