<svg width="33" height="33" viewBox="0 0 33 33" fill="none" xmlns="http://www.w3.org/2000/svg">
<g clip-path="url(#clip0_308_1652)">
<path d="M31.8144 26.0365H31.1357C30.9098 26.0365 30.726 25.8526 30.726 25.6266V10.6975C30.726 10.1356 30.2688 9.67853 29.7071 9.67853H27.8511C27.2893 9.67853 26.8322 10.1356 26.8322 10.6975V14.8204H24.4218C24.4264 14.7849 24.4295 14.7489 24.4295 14.7123V10.6475C24.4295 10.0653 24.2495 9.15352 24.0285 8.61498L23.893 8.28475H23.9958C24.4656 8.28475 24.8477 7.90262 24.8477 7.43289V6.95613C24.8477 6.55372 24.5702 6.26174 24.1879 6.26174C24.118 6.26174 24.0465 6.27174 23.975 6.29148L23.1661 6.51425L22.326 4.46798C22.0878 3.88836 21.3845 3.41687 20.758 3.41687H12.8976C12.2708 3.41687 11.5674 3.88849 11.3295 4.46812L10.4906 6.51141L9.69199 6.29148C9.62048 6.27174 9.54884 6.26174 9.47909 6.26174C9.09682 6.26174 8.8193 6.55385 8.8193 6.95613V7.43289C8.8193 7.90262 9.20144 8.28475 9.67117 8.28475H9.76268L9.6271 8.61485C9.40596 9.15325 9.22604 10.065 9.22604 10.6473V14.7121C9.22604 14.7488 9.22915 14.7849 9.23375 14.8203H6.83468V10.6975C6.83468 10.1356 6.37752 9.67853 5.81574 9.67853H3.95993C3.39815 9.67853 2.94099 10.1356 2.94099 10.6975V25.6266C2.94099 25.8526 2.75716 26.0365 2.53115 26.0365H1.85257C1.29065 26.0365 0.833496 26.4935 0.833496 27.0554V27.9236C0.833496 28.4856 1.29065 28.9426 1.85257 28.9426H7.92324C8.48502 28.9426 8.94218 28.4856 8.94218 27.9236V27.0554C8.94218 26.4935 8.48502 26.0365 7.92324 26.0365H7.24466C7.01865 26.0365 6.83481 25.8526 6.83481 25.6266V16.9637H26.8323V25.6266C26.8323 25.8526 26.6485 26.0365 26.4225 26.0365H25.7438C25.182 26.0365 24.7248 26.4935 24.7248 27.0554V27.9236C24.7248 28.4856 25.182 28.9426 25.7438 28.9426H31.8146C32.3763 28.9426 32.8335 28.4856 32.8335 27.9236V27.0554C32.8334 26.4935 32.3763 26.0365 31.8144 26.0365ZM22.7902 10.5784V11.7367C22.7902 11.924 22.6369 12.0775 22.4496 12.0775H20.0358C19.8483 12.0775 19.6951 11.9242 19.6951 11.7367V10.5784C19.6951 10.391 19.8484 10.2376 20.0358 10.2376H22.4496C22.6369 10.2377 22.7902 10.391 22.7902 10.5784ZM11.1014 7.82219L12.3718 4.72725C12.5141 4.38052 12.9372 4.0968 13.3119 4.0968H20.3434C20.7181 4.0968 21.1412 4.38052 21.2836 4.72725L22.5542 7.82219C22.6965 8.16891 22.5062 8.45264 22.1315 8.45264H11.5241C11.1493 8.45264 10.9591 8.16891 11.1014 7.82219ZM10.8427 10.5784C10.8427 10.391 10.9961 10.2376 11.1835 10.2376H13.597C13.7844 10.2376 13.9378 10.3909 13.9378 10.5784V11.7367C13.9378 11.924 13.7844 12.0775 13.597 12.0775H11.1834C10.996 12.0775 10.8426 11.9242 10.8426 11.7367L10.8427 10.5784ZM12.0424 14.7123V13.6973H21.6134V14.7123C21.6134 14.7489 21.6165 14.785 21.6211 14.8204H12.0347C12.0391 14.785 12.0424 14.749 12.0424 14.7123Z" fill="black"/>
</g>
<defs>
<clipPath id="clip0_308_1652">
<rect width="32" height="32" fill="white" transform="translate(0.833359 0.179688)"/>
</clipPath>
</defs>
</svg>
