<svg width="24" height="24" viewBox="0 0 24 24" fill="none" xmlns="http://www.w3.org/2000/svg">
<path fill-rule="evenodd" clip-rule="evenodd" d="M6.16602 10.75C6.16602 7 8.66602 4.5 12.416 4.5C16.166 4.5 18.666 7.625 18.666 10.75C18.666 12.6938 16.8524 15.3631 13.2252 18.7577C12.7622 19.191 12.0481 19.209 11.5639 18.7996C7.96531 15.7565 6.16602 13.0733 6.16602 10.75ZM12.416 12C13.5666 12 14.4993 11.0673 14.4993 9.91667C14.4993 8.76607 13.5666 7.83333 12.416 7.83333C11.2654 7.83333 10.3327 8.76607 10.3327 9.91667C10.3327 11.0673 11.2654 12 12.416 12Z" fill="#212121"/>
</svg>
