<svg width="21" height="22" viewBox="0 0 21 22" fill="none" xmlns="http://www.w3.org/2000/svg">
<g clip-path="url(#clip0_137_1244)">
<path d="M10.4999 22.0001C12.1002 22.0001 13.5314 21.8792 14.7936 21.6374C16.0557 21.3955 17.127 21.0655 18.0075 20.6472C18.888 20.2289 19.5592 19.7485 20.0212 19.206C20.4832 18.6635 20.7142 18.0884 20.7142 17.4805C20.7142 16.9576 20.5652 16.4723 20.2673 16.0246C19.9693 15.5769 19.5642 15.1733 19.052 14.8138C18.5398 14.4544 17.9623 14.1455 17.3195 13.8874C16.6767 13.6292 16.0071 13.425 15.3108 13.2746C14.6144 13.1243 13.9348 13.0393 13.272 13.0197V14.7648C13.8344 14.791 14.4152 14.871 15.0145 15.005C15.6138 15.139 16.1712 15.3171 16.6868 15.5393C17.2023 15.7616 17.6208 16.0214 17.9422 16.3187C18.2636 16.6161 18.4243 16.9413 18.4243 17.2942C18.4243 17.7191 18.2268 18.1047 17.8317 18.4511C17.4367 18.7975 16.886 19.0982 16.1796 19.3531C15.4732 19.608 14.6362 19.8057 13.6687 19.9462C12.7011 20.0867 11.6449 20.157 10.4999 20.157C9.35497 20.157 8.29872 20.0867 7.33119 19.9462C6.36367 19.8057 5.52503 19.6096 4.81528 19.358C4.10554 19.1063 3.55649 18.8057 3.16814 18.456C2.77979 18.1063 2.58562 17.7191 2.58562 17.2942C2.58562 16.9413 2.74464 16.6161 3.06268 16.3187C3.38073 16.0214 3.79754 15.7616 4.3131 15.5393C4.82867 15.3171 5.38777 15.139 5.99038 15.005C6.59299 14.871 7.17217 14.791 7.72791 14.7648V13.0197C7.07173 13.0393 6.39547 13.1243 5.69912 13.2746C5.00276 13.425 4.33319 13.6292 3.6904 13.8874C3.04762 14.1455 2.47011 14.4544 1.95789 14.8138C1.44568 15.1733 1.03891 15.5769 0.737604 16.0246C0.436298 16.4723 0.285645 16.9576 0.285645 17.4805C0.285645 18.0884 0.518319 18.6635 0.983669 19.206C1.44902 19.7485 2.12194 20.2289 3.00242 20.6472C3.88291 21.0655 4.95422 21.3955 6.21636 21.6374C7.4785 21.8792 8.90636 22.0001 10.4999 22.0001H10.4999ZM10.51 18.1374C10.6171 18.1374 10.7326 18.0377 10.8565 17.8384C10.9803 17.639 11.0958 17.3531 11.203 16.9805C11.3101 16.608 11.3972 16.1586 11.4641 15.6325C11.5311 15.1063 11.5645 14.5132 11.5645 13.8531V7.29425H9.44536V13.8531C9.44536 14.5132 9.47884 15.1063 9.5458 15.6325C9.61275 16.1586 9.70147 16.608 9.81195 16.9805C9.92243 17.3531 10.0396 17.639 10.1635 17.8384C10.2873 18.0377 10.4028 18.1374 10.51 18.1374H10.51ZM10.51 7.81385C11.2465 7.81385 11.9161 7.63738 12.5187 7.28444C13.1213 6.9315 13.6017 6.45928 13.9599 5.86777C14.3182 5.27627 14.4973 4.62431 14.4973 3.91189C14.4973 3.19294 14.3182 2.53771 13.9599 1.9462C13.6017 1.3547 13.1213 0.882474 12.5187 0.529534C11.9161 0.176592 11.2465 0.00012207 10.51 0.00012207C9.76675 0.00012207 9.09551 0.176592 8.49624 0.529534C7.89698 0.882477 7.41823 1.3547 7.06001 1.9462C6.70179 2.53771 6.52268 3.19294 6.52268 3.91189C6.52268 4.62431 6.70179 5.27627 7.06001 5.86777C7.41823 6.45928 7.89697 6.9315 8.49624 7.28444C9.09551 7.63738 9.76675 7.81385 10.51 7.81385ZM9.37506 4.12758C9.01349 4.12758 8.69544 3.99359 8.42092 3.72562C8.14639 3.45764 8.00913 3.14392 8.00913 2.78444C8.00913 2.42496 8.14639 2.1145 8.42092 1.85306C8.69544 1.59163 9.01349 1.46091 9.37506 1.46091C9.75001 1.46091 10.0714 1.59163 10.3392 1.85306C10.6071 2.1145 10.741 2.42496 10.741 2.78444C10.741 3.14392 10.6071 3.45764 10.3392 3.72562C10.0714 3.99359 9.75002 4.12758 9.37506 4.12758Z" fill="#FEFEFE"/>
</g>
<defs>
<clipPath id="clip0_137_1244">
<rect width="20.4286" height="22" fill="white" transform="translate(0.285645)"/>
</clipPath>
</defs>
</svg>
