<svg width="13" height="14" viewBox="0 0 13 14" fill="none" xmlns="http://www.w3.org/2000/svg">
<g clip-path="url(#clip0_129_1450)">
<path d="M6.5 14.0001C7.51836 14.0001 8.42912 13.9232 9.2323 13.7693C10.0355 13.6154 10.7172 13.4053 11.2775 13.1392C11.8378 12.873 12.265 12.5673 12.559 12.222C12.853 11.8768 13 11.5108 13 11.124C13 10.7913 12.9052 10.4824 12.7156 10.1975C12.526 9.91262 12.2682 9.65579 11.9422 9.42703C11.6163 9.19827 11.2488 9.00175 10.8397 8.83746C10.4307 8.67317 10.0046 8.54319 9.56146 8.44753C9.11832 8.35187 8.68584 8.2978 8.26401 8.28532V9.39584C8.62193 9.41248 8.99156 9.46343 9.37291 9.54869C9.75426 9.63396 10.109 9.7473 10.4371 9.88871C10.7652 10.0301 11.0315 10.1955 11.236 10.3847C11.4405 10.5739 11.5428 10.7809 11.5428 11.0055C11.5428 11.2758 11.4171 11.5212 11.1657 11.7417C10.9143 11.9621 10.5638 12.1534 10.1143 12.3156C9.66478 12.4778 9.13217 12.6037 8.51647 12.6931C7.90077 12.7825 7.22862 12.8272 6.5 12.8272C5.77139 12.8272 5.09923 12.7825 4.48353 12.6931C3.86783 12.6037 3.33415 12.4789 2.8825 12.3188C2.43084 12.1586 2.08145 11.9673 1.83431 11.7448C1.58718 11.5223 1.46362 11.2758 1.46362 11.0055C1.46362 10.7809 1.56481 10.5739 1.76721 10.3847C1.9696 10.1955 2.23484 10.0301 2.56293 9.88871C2.89102 9.7473 3.2468 9.63396 3.63028 9.54869C4.01376 9.46343 4.38233 9.41248 4.73599 9.39584V8.28532C4.31842 8.2978 3.88807 8.35187 3.44494 8.44753C3.0018 8.5432 2.57571 8.67317 2.16667 8.83746C1.75762 9.00175 1.39012 9.19827 1.06416 9.42703C0.738201 9.65579 0.479352 9.91262 0.287611 10.1975C0.0958703 10.4824 0 10.7913 0 11.124C0 11.5108 0.148066 11.8768 0.444198 12.222C0.740329 12.5673 1.16855 12.873 1.72886 13.1392C2.28917 13.4053 2.97091 13.6154 3.77409 13.7693C4.57727 13.9232 5.48591 14.0001 6.5 14.0001H6.5ZM6.50639 11.542C6.57457 11.542 6.64807 11.4786 6.72689 11.3517C6.80572 11.2249 6.87922 11.0429 6.9474 10.8058C7.01557 10.5687 7.07096 10.2828 7.11357 9.94798C7.15618 9.61316 7.17748 9.23571 7.17748 8.81563V4.64184H5.82891V8.81563C5.82891 9.23571 5.85021 9.61316 5.89282 9.94798C5.93543 10.2828 5.99189 10.5687 6.06219 10.8058C6.1325 11.0429 6.20707 11.2249 6.28589 11.3517C6.36472 11.4786 6.43822 11.542 6.50639 11.542H6.50639ZM6.50639 4.9725C6.97509 4.9725 7.40118 4.8602 7.78466 4.6356C8.16814 4.411 8.47386 4.11049 8.70182 3.73408C8.92978 3.35767 9.04376 2.94279 9.04376 2.48943C9.04376 2.03191 8.92978 1.61495 8.70182 1.23854C8.47387 0.862124 8.16815 0.561619 7.78466 0.337021C7.40118 0.112421 6.97509 0.00012207 6.50639 0.00012207C6.03343 0.00012207 5.60628 0.112421 5.22493 0.337021C4.84358 0.561621 4.53892 0.862126 4.31096 1.23854C4.083 1.61495 3.96902 2.03191 3.96902 2.48943C3.96902 2.94279 4.083 3.35767 4.31096 3.73408C4.53892 4.11049 4.84357 4.411 5.22493 4.6356C5.60628 4.8602 6.03343 4.9725 6.50639 4.9725ZM5.78417 2.62669C5.55408 2.62669 5.35169 2.54142 5.17699 2.37089C5.00229 2.20036 4.91495 2.00072 4.91495 1.77196C4.91495 1.5432 5.00229 1.34564 5.17699 1.17927C5.35169 1.0129 5.55408 0.929713 5.78417 0.929713C6.02278 0.929713 6.2273 1.0129 6.39774 1.17927C6.56818 1.34564 6.65339 1.5432 6.65339 1.77196C6.65339 2.00072 6.56818 2.20036 6.39774 2.37089C6.2273 2.54142 6.02278 2.62669 5.78417 2.62669Z" fill="#212121"/>
</g>
<defs>
<clipPath id="clip0_129_1450">
<rect width="13" height="14" fill="white"/>
</clipPath>
</defs>
</svg>
