<svg width="101" height="100" viewBox="0 0 101 100" fill="none" xmlns="http://www.w3.org/2000/svg">
<path d="M66.125 37.5C66.125 28.875 59.125 21.875 50.5 21.875C41.875 21.875 34.875 28.875 34.875 37.5C34.875 46.125 41.875 53.125 50.5 53.125C59.125 53.125 66.125 46.125 66.125 37.5ZM50.5 3.125C69.5 3.125 84.875 18.5 84.875 37.5C84.875 65.625 50.5 96.875 50.5 96.875C50.5 96.875 16.125 65.625 16.125 37.5C16.125 18.5 31.5 3.125 50.5 3.125Z" fill="#FED046"/>
<path d="M59.875 87.5C72.375 75 84.875 54.5219 84.875 37.5C84.875 18.5156 69.4844 3.125 50.5 3.125C31.5156 3.125 16.125 18.5156 16.125 37.5C16.125 65.625 50.5 96.875 50.5 96.875M16.125 96.875H84.875M66.125 37.5C66.125 28.8687 59.1313 21.875 50.5 21.875C41.8687 21.875 34.875 28.8687 34.875 37.5C34.875 46.1313 41.8687 53.125 50.5 53.125C59.1313 53.125 66.125 46.1313 66.125 37.5Z" stroke="#212121" stroke-width="5" stroke-linecap="round" stroke-linejoin="round"/>
</svg>
