<svg width="33" height="33" viewBox="0 0 33 33" fill="none" xmlns="http://www.w3.org/2000/svg">
<g clip-path="url(#clip0_129_1346)">
<path d="M1.1 30.6464H3.9C3.9 30.4464 3.83333 30.2464 3.83333 30.0464C3.83333 27.9797 5.5 26.3797 7.5 26.3797C9.56666 26.3797 11.2333 28.113 11.1667 30.1797C11.1667 30.313 11.1667 30.513 11.1 30.6464H20.4333C20.4333 30.4464 20.3667 30.2464 20.3667 30.0464C20.3667 27.7797 22.5 25.913 24.8333 26.4464C26.3667 26.7797 27.5 28.0464 27.7 29.5797C27.7667 29.913 27.7667 30.2464 27.7 30.6464H30.3C30.9667 30.6464 31.5 30.0464 31.3667 29.3797C30.7667 25.113 27.0333 21.7797 22.6333 21.7797H22.3L16.9 15.513C16.7 15.2464 16.3667 15.113 16.0333 15.113H5.03333C4.5 15.113 4.03333 15.4464 3.9 15.9797L2.43333 21.7797H2.3C1.1 21.7797 0.166664 22.713 0.166664 23.913V29.713C0.166664 30.1797 0.566664 30.6464 1.1 30.6464ZM19.2333 21.7797H11.5667V17.4464H15.5L19.2333 21.7797ZM5.9 17.3797H9.23333V21.713H4.83333L5.9 17.3797Z" fill="#212121"/>
<path d="M7.49999 32.1798C8.6782 32.1798 9.63333 31.2246 9.63333 30.0464C9.63333 28.8682 8.6782 27.9131 7.49999 27.9131C6.32179 27.9131 5.36666 28.8682 5.36666 30.0464C5.36666 31.2246 6.32179 32.1798 7.49999 32.1798Z" fill="#212121"/>
<path d="M24.0333 32.1798C25.2115 32.1798 26.1667 31.2246 26.1667 30.0464C26.1667 28.8682 25.2115 27.9131 24.0333 27.9131C22.8551 27.9131 21.9 28.8682 21.9 30.0464C21.9 31.2246 22.8551 32.1798 24.0333 32.1798Z" fill="#212121"/>
<path d="M25.1 4.24635H16.4333V0.179688H14.5667V4.24635H5.89999C4.69999 4.24635 3.76665 5.17969 3.76665 6.37969H27.2333C27.2333 5.17969 26.2333 4.24635 25.1 4.24635Z" fill="#212121"/>
<path d="M24.9 10.5131C25.5667 10.5131 26.1667 9.97974 26.1667 9.2464C26.1667 8.57974 24.9 6.97974 24.9 6.97974C24.9 6.97974 23.6333 8.57974 23.6333 9.2464C23.6333 9.91307 24.1667 10.5131 24.9 10.5131Z" fill="#212121"/>
<path d="M20.9 13.1797C21.5667 13.1797 22.1667 12.6464 22.1667 11.913C22.1667 11.2464 20.9 9.64636 20.9 9.64636C20.9 9.64636 19.6333 11.2464 19.6333 11.913C19.6333 12.5797 20.1667 13.1797 20.9 13.1797Z" fill="#212121"/>
<path d="M16.8333 10.5131C17.5 10.5131 18.1 9.97974 18.1 9.2464C18.1 8.57974 16.8333 6.97974 16.8333 6.97974C16.8333 6.97974 15.5667 8.57974 15.5667 9.2464C15.5667 9.91307 16.1667 10.5131 16.8333 10.5131Z" fill="#212121"/>
<path d="M12.8333 13.1797C13.5 13.1797 14.1 12.6464 14.1 11.913C14.1 11.2464 12.8333 9.64636 12.8333 9.64636C12.8333 9.64636 11.5667 11.2464 11.5667 11.913C11.5667 12.5797 12.1 13.1797 12.8333 13.1797Z" fill="#212121"/>
<path d="M8.76666 10.5131C9.43333 10.5131 10.0333 9.97974 10.0333 9.2464C10.0333 8.57974 8.76666 6.97974 8.76666 6.97974C8.76666 6.97974 7.49999 8.57974 7.49999 9.2464C7.56666 9.91307 8.09999 10.5131 8.76666 10.5131Z" fill="#212121"/>
<path d="M4.76666 13.1797C5.43333 13.1797 6.03333 12.6464 6.03333 11.913C6.03333 11.2464 4.76666 9.64636 4.76666 9.64636C4.76666 9.64636 3.49999 11.2464 3.49999 11.913C3.49999 12.5797 4.09999 13.1797 4.76666 13.1797Z" fill="#212121"/>
</g>
<defs>
<clipPath id="clip0_129_1346">
<rect width="32" height="32" fill="white" transform="translate(0.166664 0.179688)"/>
</clipPath>
</defs>
</svg>
