<svg width="33" height="33" viewBox="0 0 33 33" fill="none" xmlns="http://www.w3.org/2000/svg">
<g clip-path="url(#clip0_129_1373)">
<path d="M16.5067 0.179689C13.3422 0.178358 10.2484 1.11544 7.61648 2.87244C4.98455 4.62944 2.93274 7.12744 1.72051 10.0506C0.508282 12.9737 0.19008 16.1906 0.806145 19.2946C1.42221 22.3985 2.94487 25.2501 5.18158 27.4887C7.41829 29.7272 10.2686 31.2523 13.372 31.8709C16.4755 32.4896 19.6927 32.1741 22.6168 30.9643C25.5409 29.7545 28.0406 27.7048 29.7998 25.0743C31.559 22.4439 32.4987 19.3508 32.5 16.1863C32.5012 14.0851 32.0884 12.0042 31.2853 10.0625C30.4821 8.12087 29.3043 6.35643 27.8191 4.87002C26.334 3.3836 24.5705 2.20433 22.6295 1.39955C20.6885 0.594777 18.608 0.180264 16.5067 0.179689ZM24.2028 23.5216C23.8804 23.8732 23.5271 24.1952 23.1472 24.4836C21.3389 25.9466 19.0991 26.773 16.774 26.8352H16.5067C16.1139 26.8333 15.7215 26.811 15.331 26.7684C13.013 26.5077 10.8445 25.4939 9.1581 23.8824V23.869C8.8102 23.5478 8.4885 23.1993 8.19606 22.8269C6.73716 21.0173 5.91536 18.7773 5.85785 16.4536V16.1863C5.85976 15.7935 5.88208 15.401 5.92473 15.0105C6.17638 12.69 7.19149 10.5188 8.8107 8.83769C9.13191 8.48977 9.48042 8.16809 9.8529 7.87572C11.6619 6.40499 13.9087 5.57771 16.2395 5.52415H16.5067C16.8951 5.52567 17.2831 5.54797 17.6691 5.59094C19.9944 5.83965 22.1708 6.855 23.8554 8.47699C24.2002 8.80598 24.5217 9.15867 24.8173 9.5325C26.2765 11.3471 27.0981 13.5913 27.1555 15.9191V16.1863C27.1537 16.5791 27.1314 16.9716 27.0888 17.3621C26.8398 19.6794 25.8241 21.8473 24.2028 23.5216Z" fill="#212121"/>
<path d="M23.067 9.87992C21.7426 8.47077 19.9913 7.53647 18.0833 7.22107C17.6214 7.12902 17.1514 7.08423 16.6804 7.08741C16.6232 7.07632 16.565 7.07183 16.5067 7.07403C14.6348 7.06559 12.8074 7.64513 11.2825 8.73088C10.8966 8.98704 10.5384 9.28255 10.2136 9.61268C8.80538 10.9397 7.86738 12.6891 7.54137 14.5964C7.44935 15.0628 7.40459 15.5373 7.40779 16.0126C7.3967 16.0698 7.39221 16.1281 7.39441 16.1863C7.39237 18.0532 7.97141 19.8744 9.05118 21.3972C9.31601 21.7845 9.61564 22.1467 9.94636 22.4795C11.2764 23.8813 13.0251 24.8142 14.9301 25.1383C15.392 25.2304 15.8621 25.2751 16.333 25.2719C16.3902 25.283 16.4485 25.2875 16.5067 25.2853C18.3725 25.294 20.1944 24.7194 21.7176 23.6419C22.1049 23.3771 22.4671 23.0774 22.7999 22.7467C24.2081 21.4197 25.1461 19.6703 25.4721 17.763C25.5641 17.3011 25.6088 16.831 25.6057 16.36C25.6168 16.3029 25.6213 16.2446 25.6191 16.1863C25.6295 14.3141 25.0498 12.4862 23.9623 10.9622C23.7016 10.5718 23.4016 10.2092 23.067 9.87992ZM22.2921 11.0156C21.3435 12.2315 20.0875 13.3939 18.5643 13.6878H18.5509C18.2743 13.4613 17.963 13.2809 17.629 13.1534C18.3506 11.7638 18.4441 10.1204 18.2971 8.62396C19.8474 8.9805 21.2456 9.8175 22.2921 11.0156ZM16.5067 18.0703C16.1322 18.0716 15.7658 17.9617 15.4538 17.7545C15.1419 17.5473 14.8985 17.2521 14.7546 16.9063C14.6107 16.5606 14.5726 16.1799 14.6454 15.8125C14.7181 15.4452 14.8983 15.1077 15.1631 14.8429C15.4279 14.578 15.7654 14.3978 16.1328 14.3251C16.5001 14.2523 16.8808 14.2903 17.2266 14.4343C17.5723 14.5782 17.8675 14.8215 18.0748 15.1335C18.282 15.4454 18.3919 15.8118 18.3906 16.1863C18.3909 16.4338 18.3424 16.6789 18.2478 16.9076C18.1532 17.1363 18.0145 17.3441 17.8395 17.5191C17.6645 17.6941 17.4567 17.8329 17.228 17.9275C16.9993 18.0221 16.7542 18.0706 16.5067 18.0703ZM16.5067 8.41014C16.6498 8.40572 16.7929 8.41467 16.9343 8.43689C17.1347 9.97346 17.0679 11.6836 16.1861 12.9663C15.8304 13.0044 15.483 13.0991 15.1572 13.2469C14.6896 11.7638 13.594 10.5346 12.4316 9.57256C13.6548 8.81226 15.0665 8.4096 16.5067 8.41014ZM11.336 10.401C12.5652 11.3496 13.7276 12.6056 14.0082 14.1288V14.1421C13.7857 14.4241 13.6098 14.7399 13.4871 15.0774C12.0976 14.3425 10.4541 14.2357 8.94427 14.396C9.30087 12.8457 10.1379 11.4476 11.336 10.401ZM8.73053 16.1863C8.72611 16.0433 8.73506 15.9002 8.75727 15.7588C10.2938 15.5584 12.0174 15.6252 13.3 16.5204C13.3364 16.8721 13.4312 17.2153 13.5806 17.5358C12.0842 18.0034 10.855 19.0991 9.89294 20.2615C9.13265 19.0382 8.72998 17.6266 8.73053 16.1863V16.1863ZM10.7213 21.3571C11.67 20.1145 12.9393 18.9521 14.4758 18.6849C14.7482 18.907 15.0551 19.0831 15.3844 19.206C14.6629 20.5955 14.5693 22.239 14.7163 23.7354C13.1693 23.3784 11.7726 22.5469 10.7213 21.3571V21.3571ZM16.5067 23.9492C16.3637 23.9536 16.2205 23.9447 16.0792 23.9225C15.8787 22.3726 15.9589 20.6624 16.8408 19.3931C17.1925 19.3567 17.5357 19.2618 17.8562 19.1124C18.3238 20.6089 19.4061 21.8382 20.5685 22.8001C19.3497 23.5578 17.9418 23.9561 16.5067 23.9492V23.9492ZM21.6909 21.9584C20.4483 21.0231 19.2859 19.7538 19.0053 18.2173C19.2275 17.9401 19.4035 17.6287 19.5264 17.2953C20.5685 17.8431 21.7577 18.0436 22.9201 18.0436C23.304 18.0417 23.6875 18.0194 24.0691 17.9768C23.7087 19.5186 22.8775 20.9101 21.6909 21.9584V21.9584ZM24.2829 16.1863C24.2874 16.3294 24.2784 16.4725 24.2562 16.6139C22.7197 16.8144 20.9961 16.7342 19.7134 15.8523C19.677 15.5006 19.5822 15.1574 19.4328 14.8369C20.9293 14.3692 22.1585 13.2736 23.1205 12.1112C23.8808 13.3344 24.2835 14.7461 24.2829 16.1863V16.1863Z" fill="#212121"/>
</g>
<defs>
<clipPath id="clip0_129_1373">
<rect width="32" height="32" fill="white" transform="translate(0.500008 0.179688)"/>
</clipPath>
</defs>
</svg>
