<svg width="33" height="33" viewBox="0 0 33 33" fill="none" xmlns="http://www.w3.org/2000/svg">
<g clip-path="url(#clip0_129_1359)">
<path d="M14.2347 15.8658C14.0968 15.9836 13.9857 16.1303 13.9091 16.2957C13.8325 16.4611 13.7921 16.6414 13.7908 16.8242V26.9974H24.6061V28.3218C24.6061 28.7899 24.7896 29.2388 25.1163 29.5697C25.443 29.9007 25.886 30.0866 26.348 30.0866H28.601C29.063 30.0866 29.506 29.9007 29.8327 29.5697C30.1593 29.2388 30.3429 28.7899 30.3429 28.3218V19.8793C30.3822 18.3631 29.9612 16.8712 29.1367 15.6053C29.0551 15.4833 28.9704 15.3633 28.8827 15.2455H28.9837H29.7337C30.1986 15.2375 30.6425 15.0473 30.9719 14.7147C31.3013 14.3821 31.4906 13.9331 31.5 13.462C31.5 12.9751 31.5 12.5781 31.5 12.2214C31.5 11.7615 31.321 11.3201 31.0017 10.9932C30.6825 10.6662 30.2488 10.4801 29.7949 10.4752C29.5806 10.4752 29.3663 10.4752 29.149 10.4752C28.4188 10.5137 27.729 10.8267 27.2143 11.353C26.3816 9.25937 25.3378 6.88354 24.6827 5.93135C23.5194 4.23787 21.8265 3.76023 20.6541 3.55862C19.0365 3.29689 17.4003 3.17033 15.7623 3.18023C17.1189 5.10567 17.7142 7.47624 17.4309 9.82448C17.1476 12.1727 16.0061 14.3282 14.2316 15.8658H14.2347ZM20.9878 18.0741L24.1776 17.2274C24.3769 17.1741 24.5857 17.1675 24.7879 17.2083C24.9902 17.249 25.1806 17.3359 25.3447 17.4624C25.5088 17.5889 25.6423 17.7516 25.735 17.9383C25.8276 18.1249 25.8771 18.3305 25.8796 18.5394V19.3861C25.8796 19.7505 25.7367 20.1 25.4824 20.3577C25.2281 20.6154 24.8831 20.7601 24.5235 20.7601H21.3337C21.0052 20.7584 20.6885 20.6359 20.4424 20.4155C20.1963 20.195 20.0375 19.8915 19.9956 19.5614C19.9537 19.2312 20.0315 18.8969 20.2146 18.6205C20.3976 18.3442 20.6734 18.1445 20.9908 18.0586L20.9878 18.0741ZM1.50001 8.67627C1.49887 7.68194 1.71578 6.69978 2.13508 5.80078C2.55438 4.90178 3.16558 4.10839 3.9245 3.47798C4.04725 3.37388 4.20219 3.3168 4.36226 3.3167C4.55362 3.31751 4.73691 3.39489 4.87222 3.53199C5.00753 3.66909 5.0839 3.85479 5.08471 4.04868V7.15028C5.08471 7.40322 5.13388 7.65368 5.22941 7.88736C5.32495 8.12105 5.46498 8.33338 5.6415 8.51223C5.99801 8.87345 6.48154 9.07638 6.98573 9.07638H9.30613C9.55578 9.07638 9.80298 9.02656 10.0336 8.92976C10.2643 8.83296 10.4738 8.69109 10.6504 8.51223C10.8269 8.33338 10.9669 8.12105 11.0624 7.88736C11.158 7.65368 11.2072 7.40322 11.2072 7.15028V4.04868C11.208 3.85479 11.2843 3.66909 11.4196 3.53199C11.555 3.39489 11.7382 3.31751 11.9296 3.3167C12.0897 3.3168 12.2446 3.37388 12.3674 3.47798C13.1169 4.10109 13.7225 4.88308 14.1415 5.76891C14.5606 6.65474 14.7829 7.62286 14.7928 8.60513C14.8027 9.5874 14.6 10.5599 14.199 11.4543C13.7979 12.3486 13.2082 13.143 12.4714 13.7815C12.0371 14.1566 11.6879 14.6224 11.448 15.1471C11.2081 15.6718 11.0831 16.2428 11.0816 16.8211V28.0799C11.0816 28.3557 11.028 28.6287 10.9239 28.8835C10.8197 29.1382 10.6671 29.3697 10.4746 29.5647C10.2822 29.7597 10.0537 29.9143 9.80229 30.0199C9.55085 30.1254 9.28135 30.1797 9.0092 30.1797H7.28266C6.73302 30.1797 6.20588 29.9585 5.81722 29.5647C5.42856 29.1709 5.21022 28.6368 5.21022 28.0799V16.8242C5.20873 16.2459 5.08374 15.6749 4.84384 15.1502C4.60394 14.6255 4.25481 14.1597 3.82042 13.7846C3.0917 13.1541 2.50681 12.3708 2.10618 11.4888C1.70554 10.6068 1.49872 9.64718 1.50001 8.67627Z" fill="#212121"/>
</g>
<defs>
<clipPath id="clip0_129_1359">
<rect width="32" height="32" fill="white" transform="translate(0.500008 0.179688)"/>
</clipPath>
</defs>
</svg>
