<svg width="25" height="24" viewBox="0 0 25 24" fill="none" xmlns="http://www.w3.org/2000/svg">
<path d="M8.97308 13.3016C8.61409 12.9425 8.03198 12.9425 7.67295 13.3016C7.31393 13.6606 7.31393 14.2426 7.67295 14.6017L8.97308 13.3016ZM10.7746 16.4032L10.1246 17.0533C10.4836 17.4123 11.0657 17.4123 11.4247 17.0533L10.7746 16.4032ZM16.3279 12.15C16.687 11.791 16.687 11.209 16.3279 10.85C15.9689 10.4909 15.3869 10.4909 15.0278 10.85L16.3279 12.15ZM2.52426 7.99224C2.40945 8.48685 2.71734 8.98087 3.21192 9.0957C3.70652 9.21044 4.20055 8.9026 4.31536 8.40801L2.52426 7.99224ZM4.64562 2.91935V2C4.21796 2 3.84677 2.29489 3.75007 2.71147L4.64562 2.91935ZM12.0005 3.83871C12.5082 3.83871 12.9198 3.4271 12.9198 2.91935C12.9198 2.41161 12.5082 2 12.0005 2V3.83871ZM4.33916 8.20013C4.33916 7.69239 3.92755 7.28077 3.41981 7.28077C2.91207 7.28077 2.50045 7.69239 2.50045 8.20013H4.33916ZM3.41981 20.0806H2.50045C2.50045 20.5884 2.91207 21 3.41981 21V20.0806ZM20.5811 20.0806V21C21.0888 21 21.5005 20.5884 21.5005 20.0806H20.5811ZM21.5005 8.20013C21.5005 7.69239 21.0888 7.28077 20.5811 7.28077C20.0734 7.28077 19.6617 7.69239 19.6617 8.20013H21.5005ZM3.41981 7.28077C2.91207 7.28077 2.50045 7.69239 2.50045 8.20013C2.50045 8.70787 2.91207 9.11948 3.41981 9.11948V7.28077ZM12.0005 9.11948C12.5082 9.11948 12.9198 8.70787 12.9198 8.20013C12.9198 7.69239 12.5082 7.28077 12.0005 7.28077V9.11948ZM11.0811 8.20013C11.0811 8.70787 11.4927 9.11948 12.0005 9.11948C12.5082 9.11948 12.9198 8.70787 12.9198 8.20013H11.0811ZM12.9198 2.91935C12.9198 2.41161 12.5082 2 12.0005 2C11.4927 2 11.0811 2.41161 11.0811 2.91935H12.9198ZM12.0005 7.28077C11.4927 7.28077 11.0811 7.69239 11.0811 8.20013C11.0811 8.70787 11.4927 9.11948 12.0005 9.11948V7.28077ZM20.5811 9.11948C21.0888 9.11948 21.5005 8.70787 21.5005 8.20013C21.5005 7.69239 21.0888 7.28077 20.5811 7.28077V9.11948ZM12.9198 8.20013C12.9198 7.69239 12.5082 7.28077 12.0005 7.28077C11.4927 7.28077 11.0811 7.69239 11.0811 8.20013H12.9198ZM11.0811 10.2742C11.0811 10.7819 11.4927 11.1935 12.0005 11.1935C12.5082 11.1935 12.9198 10.7819 12.9198 10.2742H11.0811ZM12.0005 2C11.4927 2 11.0811 2.41161 11.0811 2.91935C11.0811 3.4271 11.4927 3.83871 12.0005 3.83871V2ZM19.3553 2.91935L20.2509 2.71147C20.1542 2.29489 19.783 2 19.3553 2V2.91935ZM19.6855 8.40801C19.8004 8.9026 20.2944 9.21044 20.789 9.0957C21.2836 8.98087 21.5914 8.48685 21.4767 7.99224L19.6855 8.40801ZM7.67295 14.6017L10.1246 17.0533L11.4247 15.7532L8.97308 13.3016L7.67295 14.6017ZM11.4247 17.0533L16.3279 12.15L15.0278 10.85L10.1246 15.7532L11.4247 17.0533ZM4.31536 8.40801L5.54116 3.12724L3.75007 2.71147L2.52426 7.99224L4.31536 8.40801ZM4.64562 3.83871H12.0005V2H4.64562V3.83871ZM2.50045 8.20013V20.0806H4.33916V8.20013H2.50045ZM3.41981 21H20.5811V19.1613H3.41981V21ZM21.5005 20.0806V8.20013H19.6617V20.0806H21.5005ZM3.41981 9.11948H12.0005V7.28077H3.41981V9.11948ZM12.9198 8.20013V2.91935H11.0811V8.20013H12.9198ZM12.0005 9.11948H20.5811V7.28077H12.0005V9.11948ZM11.0811 8.20013V10.2742H12.9198V8.20013H11.0811ZM12.0005 3.83871H19.3553V2H12.0005V3.83871ZM18.4597 3.12724L19.6855 8.40801L21.4767 7.99224L20.2509 2.71147L18.4597 3.12724Z" fill="black"/>
</svg>
