<svg width="65" height="65" viewBox="0 0 65 65" fill="none" xmlns="http://www.w3.org/2000/svg">
<path d="M51.3055 36.9807L47.1989 28.7675C46.8463 28.1941 46.3519 27.7211 45.7635 27.3942C45.175 27.0672 44.5122 26.8974 43.839 26.9009H20.693C20.0198 26.8974 19.357 27.0672 18.7685 27.3942C18.1801 27.7211 17.6857 28.1941 17.3331 28.7675L13.2265 36.9807L8.59732 41.2813C8.40873 41.4562 8.25833 41.6682 8.15554 41.904C8.05275 42.1398 7.9998 42.3942 8 42.6514V58.6334C8 59.1284 8.19666 59.6032 8.54672 59.9533C8.89678 60.3033 9.37156 60.5 9.86662 60.5H17.3331C18.0797 60.5 19.1997 59.7534 19.1997 59.0067V56.7668H45.3323V58.6334C45.3323 59.38 46.0789 60.5 46.8256 60.5H54.6654C55.1604 60.5 55.6352 60.3033 55.9853 59.9533C56.3353 59.6032 56.532 59.1284 56.532 58.6334V42.6514C56.5322 42.3942 56.4792 42.1398 56.3765 41.904C56.2737 41.6682 56.1233 41.4562 55.9347 41.2813L51.3055 36.9807ZM21.0663 30.6342H43.4657L47.1989 38.1006H17.3331L21.0663 30.6342ZM22.9329 47.807C22.9329 48.5537 21.813 49.3003 21.0663 49.3003H13.2265C12.4799 49.3003 11.7332 48.1803 11.7332 47.4337V43.3271C12.1066 42.2072 12.8532 41.4605 13.9732 41.8339L21.4396 43.3271C22.1863 43.3271 22.9329 44.4471 22.9329 45.1938V47.807ZM52.7988 47.4337C52.7988 48.1803 52.0521 49.3003 51.3055 49.3003H43.4657C42.719 49.3003 41.5991 48.5537 41.5991 47.807V45.1938C41.5991 44.4471 42.3457 43.3271 43.0924 43.3271L50.5588 41.8339C51.6788 41.4605 52.4254 42.2072 52.7988 43.3271V47.4337ZM56.532 11.968V15.7012C56.5231 16.6996 56.1182 17.6536 55.4063 18.3537C54.6944 19.0537 53.7337 19.4424 52.7353 19.4345H24.2321C23.2318 20.7422 21.9094 21.7681 20.394 22.4118C18.8786 23.0555 17.2221 23.295 15.5864 23.1069C13.9507 22.9188 12.3918 22.3096 11.0621 21.3387C9.73238 20.3678 8.6773 19.0685 8 17.5679H17.3331V10.1014H8C8.6773 8.60071 9.73238 7.30143 11.0621 6.33055C12.3918 5.35966 13.9507 4.7504 15.5864 4.56231C17.2221 4.37421 18.8786 4.61372 20.394 5.25743C21.9094 5.90113 23.2318 6.92701 24.2321 8.23478H52.7353C53.7337 8.22682 54.6944 8.61557 55.4063 9.31559C56.1182 10.0156 56.5231 10.9696 56.532 11.968Z" fill="black"/>
</svg>
