<svg width="17" height="21" viewBox="0 0 17 21" fill="none" xmlns="http://www.w3.org/2000/svg">
<path d="M6.20008 0C5.6478 0 5.20008 0.44772 5.20008 1C5.20008 1.55228 5.6478 2 6.20008 2V0ZM10.1001 2C10.6524 2 11.1001 1.55228 11.1001 1C11.1001 0.44772 10.6524 0 10.1001 0V2ZM5.8506 16.3588C5.84333 15.8067 5.38977 15.3648 4.83753 15.3721C4.28529 15.3793 3.84351 15.8329 3.85077 16.3852L5.8506 16.3588ZM8.15015 19.6667L8.16375 18.6668C8.15468 18.6667 8.14561 18.6667 8.13641 18.6668L8.15015 19.6667ZM12.4493 16.3852C12.4567 15.8329 12.0148 15.3793 11.4627 15.3721C10.9104 15.3648 10.4568 15.8067 10.4496 16.3588L12.4493 16.3852ZM4.84939 17.372C5.40167 17.372 5.84939 16.9243 5.84939 16.372C5.84939 15.8197 5.40167 15.372 4.84939 15.372V17.372ZM3.38299 16.372L3.37468 17.372H3.38299V16.372ZM1.00008 13.8907L2.00008 13.8976V13.8907H1.00008ZM2.22079 8.70133L3.20543 8.87587C3.20772 8.86293 3.20976 8.85 3.21155 8.83693L2.22079 8.70133ZM8.15015 3.196L8.19108 2.19684C8.16375 2.19572 8.13628 2.19572 8.10895 2.19684L8.15015 3.196ZM14.0793 8.69733L13.0887 8.83347C13.0903 8.8448 13.092 8.856 13.0939 8.8672L14.0793 8.69733ZM14.3393 10.564L15.3283 10.4156L15.328 10.414L14.3393 10.564ZM15.3001 13.8867H14.3L14.3001 13.8941L15.3001 13.8867ZM12.9172 16.3693V17.3693H12.9255L12.9172 16.3693ZM11.4495 15.3693C10.8972 15.3693 10.4495 15.8171 10.4495 16.3693C10.4495 16.9216 10.8972 17.3693 11.4495 17.3693V15.3693ZM4.84939 15.3693C4.29709 15.3693 3.84939 15.8171 3.84939 16.3693C3.84939 16.9216 4.29709 17.3693 4.84939 17.3693V15.3693ZM11.4495 17.3693C12.0017 17.3693 12.4495 16.9216 12.4495 16.3693C12.4495 15.8171 12.0017 15.3693 11.4495 15.3693V17.3693ZM6.20008 2H10.1001V0H6.20008V2ZM3.85077 16.3852C3.88196 18.7577 5.78948 20.6989 8.16375 20.6665L8.13641 18.6668C6.91455 18.6833 5.86789 17.6747 5.8506 16.3588L3.85077 16.3852ZM8.13641 20.6665C10.5107 20.6989 12.4181 18.7577 12.4493 16.3852L10.4496 16.3588C10.4323 17.6747 9.38561 18.6833 8.16375 18.6668L8.13641 20.6665ZM4.84939 15.372H3.38299V17.372H4.84939V15.372ZM3.39128 15.372C2.64085 15.3659 1.99435 14.7296 2.00008 13.8976L0.000107683 13.8837C-0.0129057 15.7713 1.47351 17.3561 3.37468 17.372L3.39128 15.372ZM2.00008 13.8907C2.00008 13.5213 2.12436 13.1396 2.34279 12.5989C2.53937 12.1123 2.84129 11.4388 2.94971 10.7164L0.971974 10.4188C0.907494 10.8484 0.728948 11.2544 0.488401 11.8497C0.269708 12.3911 8.09799e-05 13.0947 8.09799e-05 13.8907H2.00008ZM2.94971 10.7164C3.07276 9.9004 3.13188 9.2908 3.20543 8.87587L1.23613 8.5268C1.16408 8.9332 1.06731 9.7868 0.971974 10.4188L2.94971 10.7164ZM3.21155 8.83693C3.5676 6.235 5.67899 4.29852 8.19121 4.19516L8.10895 2.19684C4.59312 2.34151 1.71247 5.04012 1.23001 8.56573L3.21155 8.83693ZM8.10908 4.19516C10.6201 4.29825 12.7312 6.23297 13.0887 8.83347L15.07 8.5612C14.5856 5.03731 11.7055 2.34112 8.19108 2.19684L8.10908 4.19516ZM13.0939 8.8672C13.1679 9.2964 13.2269 9.89813 13.3507 10.714L15.328 10.414C15.2333 9.78987 15.1339 8.9276 15.0648 8.52747L13.0939 8.8672ZM13.3504 10.7124C13.4588 11.4348 13.7608 12.1083 13.9573 12.5949C14.1757 13.1356 14.3 13.5173 14.3 13.8867H16.3001C16.3001 13.0907 16.0304 12.3871 15.8117 11.8457C15.5712 11.2504 15.3928 10.8452 15.3283 10.4156L13.3504 10.7124ZM14.3001 13.8941C14.3063 14.7265 13.6596 15.3632 12.9089 15.3693L12.9255 17.3693C14.8273 17.3535 16.314 15.7675 16.3 13.8792L14.3001 13.8941ZM12.9172 15.3693H11.4495V17.3693H12.9172V15.3693ZM4.84939 17.3693H11.4495V15.3693H4.84939V17.3693Z" fill="#212121"/>
</svg>
