<svg width="25" height="24" viewBox="0 0 25 24" fill="none" xmlns="http://www.w3.org/2000/svg">
<path d="M17.6667 14V20M14.6667 17H20.6667M6.66666 10H8.66666C9.77123 10 10.6667 9.10457 10.6667 8V6C10.6667 4.89543 9.77123 4 8.66666 4H6.66666C5.56209 4 4.66666 4.89543 4.66666 6V8C4.66666 9.10457 5.56209 10 6.66666 10ZM16.6667 10H18.6667C19.7712 10 20.6667 9.10457 20.6667 8V6C20.6667 4.89543 19.7712 4 18.6667 4H16.6667C15.5621 4 14.6667 4.89543 14.6667 6V8C14.6667 9.10457 15.5621 10 16.6667 10ZM6.66666 20H8.66666C9.77123 20 10.6667 19.1046 10.6667 18V16C10.6667 14.8954 9.77123 14 8.66666 14H6.66666C5.56209 14 4.66666 14.8954 4.66666 16V18C4.66666 19.1046 5.56209 20 6.66666 20Z" stroke="#212121" stroke-width="2" stroke-linecap="round" stroke-linejoin="round"/>
</svg>
