<svg width="24" height="24" viewBox="0 0 24 24" fill="none" xmlns="http://www.w3.org/2000/svg">
<g clip-path="url(#clip0_109_745)">
<path d="M19.5 9H17.5V6.5C17.5 5.04131 16.9205 3.64236 15.8891 2.61091C14.8576 1.57946 13.4587 1 12 1H11C9.54131 1 8.14236 1.57946 7.11091 2.61091C6.07946 3.64236 5.5 5.04131 5.5 6.5V9H3.5C3.23478 9 2.98043 9.10536 2.79289 9.29289C2.60536 9.48043 2.5 9.73478 2.5 10V22C2.5 22.2652 2.60536 22.5196 2.79289 22.7071C2.98043 22.8946 3.23478 23 3.5 23H19.5C19.7652 23 20.0196 22.8946 20.2071 22.7071C20.3946 22.5196 20.5 22.2652 20.5 22V10C20.5 9.73478 20.3946 9.48043 20.2071 9.29289C20.0196 9.10536 19.7652 9 19.5 9ZM7.5 6.5C7.5 5.57174 7.86875 4.6815 8.52513 4.02513C9.1815 3.36875 10.0717 3 11 3H12C12.9283 3 13.8185 3.36875 14.4749 4.02513C15.1313 4.6815 15.5 5.57174 15.5 6.5V9H7.5V6.5ZM7 17.5C6.70333 17.5 6.41332 17.412 6.16664 17.2472C5.91997 17.0824 5.72771 16.8481 5.61418 16.574C5.50065 16.2999 5.47094 15.9983 5.52882 15.7074C5.5867 15.4164 5.72956 15.1491 5.93934 14.9393C6.14912 14.7296 6.41639 14.5867 6.70736 14.5288C6.99834 14.4709 7.29994 14.5006 7.57403 14.6142C7.84811 14.7277 8.08238 14.92 8.2472 15.1666C8.41203 15.4133 8.5 15.7033 8.5 16C8.50698 16.1989 8.47296 16.397 8.40005 16.5822C8.32714 16.7673 8.2169 16.9355 8.0762 17.0762C7.93549 17.2169 7.76733 17.3271 7.58219 17.4001C7.39704 17.473 7.19886 17.507 7 17.5ZM11.5 17.5C11.2033 17.5 10.9133 17.412 10.6666 17.2472C10.42 17.0824 10.2277 16.8481 10.1142 16.574C10.0006 16.2999 9.97094 15.9983 10.0288 15.7074C10.0867 15.4164 10.2296 15.1491 10.4393 14.9393C10.6491 14.7296 10.9164 14.5867 11.2074 14.5288C11.4983 14.4709 11.7999 14.5006 12.074 14.6142C12.3481 14.7277 12.5824 14.92 12.7472 15.1666C12.912 15.4133 13 15.7033 13 16C13.007 16.1989 12.973 16.397 12.9001 16.5822C12.8271 16.7673 12.7169 16.9355 12.5762 17.0762C12.4355 17.2169 12.2673 17.3271 12.0822 17.4001C11.897 17.473 11.6989 17.507 11.5 17.5ZM16 17.5C15.7033 17.5 15.4133 17.412 15.1666 17.2472C14.92 17.0824 14.7277 16.8481 14.6142 16.574C14.5006 16.2999 14.4709 15.9983 14.5288 15.7074C14.5867 15.4164 14.7296 15.1491 14.9393 14.9393C15.1491 14.7296 15.4164 14.5867 15.7074 14.5288C15.9983 14.4709 16.2999 14.5006 16.574 14.6142C16.8481 14.7277 17.0824 14.92 17.2472 15.1666C17.412 15.4133 17.5 15.7033 17.5 16C17.507 16.1989 17.473 16.397 17.4001 16.5822C17.3271 16.7673 17.2169 16.9355 17.0762 17.0762C16.9355 17.2169 16.7673 17.3271 16.5822 17.4001C16.397 17.473 16.1989 17.507 16 17.5Z" fill="#212121"/>
</g>
<defs>
<clipPath id="clip0_109_745">
<rect width="24" height="24" fill="white"/>
</clipPath>
</defs>
</svg>
