<svg width="24" height="24" viewBox="0 0 24 24" fill="none" xmlns="http://www.w3.org/2000/svg">
<path d="M21.4528 19.8692L16.9826 15.6514L18.1922 14.4418L18.2094 14.4591C18.3598 14.609 18.5635 14.6932 18.7758 14.6932C18.9882 14.6932 19.1919 14.609 19.3422 14.4591L19.6571 14.1447C19.8067 13.9941 19.8907 13.7905 19.8907 13.5783C19.8907 13.366 19.8067 13.1624 19.6571 13.0119L16.0802 9.43395C16.0396 9.39394 15.9951 9.35823 15.9472 9.32739V3.36003C15.9472 3.04177 15.8208 2.73655 15.5957 2.51151C15.3707 2.28646 15.0655 2.16003 14.7472 2.16003H3.36016C3.0419 2.16003 2.73667 2.28646 2.51163 2.51151C2.28658 2.73655 2.16016 3.04177 2.16016 3.36003V20.64C2.16016 20.9583 2.28658 21.2635 2.51163 21.4886C2.73667 21.7136 3.0419 21.84 3.36016 21.84H14.7458C15.064 21.84 15.3692 21.7136 15.5943 21.4886C15.8193 21.2635 15.9458 20.9583 15.9458 20.64V17.2944L19.8688 21.4527C19.9682 21.5678 20.0899 21.6616 20.2266 21.7281C20.3634 21.7947 20.5122 21.8328 20.6642 21.84H20.6781C20.9104 21.8486 21.1396 21.7848 21.3341 21.6574C21.5286 21.5301 21.6787 21.3455 21.7638 21.1291C21.8488 20.9127 21.8646 20.6753 21.8089 20.4496C21.7532 20.2239 21.6288 20.0211 21.4528 19.8692Z" fill="#212121"/>
<path d="M14.7462 21.36H13.7478C13.7114 21.0611 13.5672 20.7858 13.3422 20.5858C13.1171 20.3858 12.8268 20.2748 12.5257 20.2738H12.5128C12.5049 20.0251 12.4009 19.7892 12.2225 19.6158C12.0441 19.4423 11.8054 19.3449 11.5566 19.344H6.54974C6.30096 19.345 6.06228 19.4426 5.884 19.6161C5.70572 19.7896 5.60178 20.0256 5.59406 20.2743H5.58111C5.28008 20.2752 4.98976 20.3861 4.76472 20.586C4.53968 20.7859 4.39541 21.0612 4.35902 21.36H3.36062C3.16967 21.36 2.98653 21.2842 2.85151 21.1491C2.71648 21.0141 2.64063 20.831 2.64063 20.64V3.36001C2.64062 3.16906 2.71648 2.98592 2.85151 2.8509C2.98653 2.71587 3.16967 2.64001 3.36062 2.64001H14.7462C14.9372 2.64001 15.1203 2.71587 15.2553 2.8509C15.3904 2.98592 15.4662 3.16906 15.4662 3.36001V9.20401C15.2707 9.21408 15.0858 9.29595 14.9469 9.43393L14.6325 9.74881C14.5581 9.82313 14.499 9.91138 14.4587 10.0085C14.4185 10.1057 14.3977 10.2098 14.3977 10.315C14.3977 10.4201 14.4185 10.5243 14.4587 10.6214C14.499 10.7186 14.5581 10.8068 14.6325 10.8811L14.6497 10.8989L11.0406 14.5099L11.0229 14.4927C10.8727 14.3426 10.669 14.2583 10.4567 14.2583C10.2444 14.2583 10.0408 14.3426 9.89054 14.4927L9.57614 14.8075C9.50173 14.8819 9.4427 14.9701 9.40243 15.0673C9.36215 15.1644 9.34142 15.2685 9.34142 15.3737C9.34142 15.4789 9.36215 15.583 9.40243 15.6801C9.4427 15.7773 9.50173 15.8655 9.57614 15.9399L13.1526 19.5178C13.227 19.5922 13.3153 19.6512 13.4125 19.6915C13.5096 19.7318 13.6138 19.7525 13.719 19.7525C13.8242 19.7525 13.9284 19.7318 14.0256 19.6915C14.1228 19.6512 14.2111 19.5922 14.2854 19.5178L14.5998 19.2034C14.7497 19.053 14.8338 18.8493 14.8338 18.637C14.8338 18.4247 14.7497 18.221 14.5998 18.0706L14.5825 18.0533L15.4677 17.1682V20.64C15.4677 20.7347 15.449 20.8284 15.4127 20.9159C15.3764 21.0033 15.3233 21.0828 15.2563 21.1496C15.1893 21.2165 15.1097 21.2695 15.0222 21.3056C14.9347 21.3417 14.8409 21.3602 14.7462 21.36Z" fill="#FEFEFE"/>
<path d="M5.21461 6.12526H12.8917C12.9554 6.12526 13.0164 6.09998 13.0614 6.05497C13.1064 6.00996 13.1317 5.94892 13.1317 5.88526C13.1317 5.82161 13.1064 5.76057 13.0614 5.71556C13.0164 5.67055 12.9554 5.64526 12.8917 5.64526H5.21461C5.15096 5.64526 5.08991 5.67055 5.0449 5.71556C4.99989 5.76057 4.97461 5.82161 4.97461 5.88526C4.97461 5.94892 4.99989 6.00996 5.0449 6.05497C5.08991 6.09998 5.15096 6.12526 5.21461 6.12526Z" fill="#212121"/>
<path d="M5.21461 8.78737H12.8917C12.9554 8.78737 13.0164 8.76209 13.0614 8.71708C13.1064 8.67207 13.1317 8.61103 13.1317 8.54737C13.1317 8.48372 13.1064 8.42268 13.0614 8.37767C13.0164 8.33266 12.9554 8.30737 12.8917 8.30737H5.21461C5.15096 8.30737 5.08991 8.33266 5.0449 8.37767C4.99989 8.42268 4.97461 8.48372 4.97461 8.54737C4.97461 8.61103 4.99989 8.67207 5.0449 8.71708C5.08991 8.76209 5.15096 8.78737 5.21461 8.78737Z" fill="#212121"/>
<path d="M5.21461 11.45H12.8917C12.9554 11.45 13.0164 11.4247 13.0614 11.3797C13.1064 11.3347 13.1317 11.2736 13.1317 11.21C13.1317 11.1463 13.1064 11.0853 13.0614 11.0403C13.0164 10.9953 12.9554 10.97 12.8917 10.97H5.21461C5.15096 10.97 5.08991 10.9953 5.0449 11.0403C4.99989 11.0853 4.97461 11.1463 4.97461 11.21C4.97461 11.2736 4.99989 11.3347 5.0449 11.3797C5.08991 11.4247 5.15096 11.45 5.21461 11.45Z" fill="#212121"/>
<path d="M5.21461 14.112H9.63397C9.69762 14.112 9.75867 14.0867 9.80368 14.0417C9.84868 13.9967 9.87397 13.9356 9.87397 13.872C9.87397 13.8083 9.84868 13.7473 9.80368 13.7023C9.75867 13.6572 9.69762 13.632 9.63397 13.632H5.21461C5.15096 13.632 5.08991 13.6572 5.0449 13.7023C4.99989 13.7473 4.97461 13.8083 4.97461 13.872C4.97461 13.9356 4.99989 13.9967 5.0449 14.0417C5.08991 14.0867 5.15096 14.112 5.21461 14.112Z" fill="#212121"/>
<path d="M9.00997 16.2941H5.21461C5.15096 16.2941 5.08991 16.3194 5.0449 16.3644C4.99989 16.4094 4.97461 16.4704 4.97461 16.5341C4.97461 16.5977 4.99989 16.6588 5.0449 16.7038C5.08991 16.7488 5.15096 16.7741 5.21461 16.7741H9.00997C9.07362 16.7741 9.13467 16.7488 9.17968 16.7038C9.22468 16.6588 9.24997 16.5977 9.24997 16.5341C9.24997 16.4704 9.22468 16.4094 9.17968 16.3644C9.13467 16.3194 9.07362 16.2941 9.00997 16.2941Z" fill="#212121"/>
<path d="M14.9886 11.2382L11.377 14.8499L14.2412 17.7141L17.8529 14.1025L14.9886 11.2382Z" fill="#212121"/>
<path d="M14.2583 18.4099C14.3185 18.4701 14.3523 18.5518 14.3523 18.6369C14.3523 18.7221 14.3185 18.8038 14.2583 18.864L13.9439 19.1784C13.8828 19.2369 13.8014 19.2695 13.7168 19.2695C13.6322 19.2695 13.5509 19.2369 13.4898 19.1784L9.91235 15.6C9.88255 15.5702 9.85891 15.5349 9.84279 15.4959C9.82666 15.457 9.81836 15.4153 9.81836 15.3732C9.81836 15.3311 9.82666 15.2893 9.84279 15.2504C9.85891 15.2115 9.88255 15.1762 9.91235 15.1464L10.2267 14.8315C10.287 14.7716 10.3685 14.7379 10.4535 14.7379C10.5385 14.7379 10.6201 14.7716 10.6803 14.8315L14.2583 18.4099Z" fill="#212121"/>
<path d="M19.3173 13.3512C19.3773 13.4115 19.411 13.4932 19.411 13.5782C19.411 13.6633 19.3773 13.7449 19.3173 13.8053L19.0025 14.1197C18.9422 14.1798 18.8605 14.2135 18.7754 14.2135C18.6903 14.2135 18.6087 14.1798 18.5484 14.1197L14.9709 10.5418C14.9411 10.512 14.9175 10.4766 14.9014 10.4377C14.8853 10.3988 14.877 10.3571 14.877 10.315C14.877 10.2728 14.8853 10.2311 14.9014 10.1922C14.9175 10.1533 14.9411 10.1179 14.9709 10.0882L15.2853 9.77328C15.3456 9.71334 15.4271 9.67969 15.5121 9.67969C15.5971 9.67969 15.6787 9.71334 15.7389 9.77328L19.3173 13.3512Z" fill="#212121"/>
<path d="M12.5246 20.7538C12.6991 20.7542 12.8682 20.8147 13.0033 20.9251C13.1385 21.0355 13.2315 21.1891 13.2667 21.36H4.83789C4.873 21.189 4.96597 21.0354 5.10114 20.925C5.23632 20.8145 5.40543 20.7541 5.57997 20.7538H12.5246Z" fill="#212121"/>
<path d="M6.07617 20.2737C6.08266 20.1525 6.13524 20.0384 6.22313 19.9547C6.31103 19.871 6.4276 19.824 6.54897 19.8235H11.5559C11.6773 19.824 11.7939 19.871 11.8819 19.9547C11.9698 20.0383 12.0225 20.1525 12.0291 20.2737H6.07617Z" fill="#212121"/>
<path d="M21.1358 21.1368C21.0782 21.2047 21.0069 21.2596 20.9266 21.298C20.8463 21.3365 20.7588 21.3576 20.6698 21.36C20.5822 21.3534 20.4969 21.329 20.4191 21.2883C20.3413 21.2476 20.2725 21.1915 20.2171 21.1234L15.9902 16.6431L16.6421 15.9912L21.1224 20.2181C21.1904 20.2736 21.2465 20.3423 21.2872 20.4201C21.3278 20.4979 21.3523 20.5832 21.359 20.6707C21.3543 20.7593 21.3321 20.846 21.2938 20.926C21.2555 21.006 21.2018 21.0776 21.1358 21.1368Z" fill="#212121"/>
</svg>
