<svg width="33" height="32" viewBox="0 0 33 32" fill="none" xmlns="http://www.w3.org/2000/svg">
<g clip-path="url(#clip0_185_1662)">
<path d="M29.6761 2.82349H23.0879C21.5349 2.82349 19.3659 3.7219 18.2678 4.82001L7.20205 15.8858C6.10399 16.9838 6.10399 18.7807 7.20205 19.8788L15.4443 28.1209C16.5423 29.2191 18.3392 29.2191 19.4373 28.1209L30.503 17.0553C31.6012 15.9572 32.4996 13.7882 32.4996 12.2352V5.64701C32.4996 4.09407 31.229 2.82349 29.6761 2.82349ZM25.9114 12.2352C24.352 12.2352 23.0879 10.9711 23.0879 9.41172C23.0879 7.85231 24.352 6.58819 25.9114 6.58819C27.4708 6.58819 28.7349 7.85231 28.7349 9.41172C28.7349 10.9711 27.4708 12.2352 25.9114 12.2352ZM3.04746 18.5477L13.1174 28.6177C12.0508 29.1812 10.692 29.0159 9.79722 28.1209L1.55499 19.8788C0.456931 18.7807 0.456931 16.9838 1.55499 15.8858L12.6208 4.82001C13.7189 3.7219 15.8879 2.82349 17.4408 2.82349L3.04746 17.2168C2.68146 17.5828 2.68146 18.1817 3.04746 18.5477Z" fill="#212121"/>
</g>
<defs>
<clipPath id="clip0_185_1662">
<rect width="32" height="32" fill="white" transform="translate(0.5)"/>
</clipPath>
</defs>
</svg>
