<svg width="24" height="24" viewBox="0 0 24 24" fill="none" xmlns="http://www.w3.org/2000/svg">
<path fill-rule="evenodd" clip-rule="evenodd" d="M19.2188 20.8H4.78199C4.00496 20.8 3.43117 20.0333 3.72424 19.3282C5.08404 16.0678 8.27863 14.2 11.9998 14.2C15.7222 14.2 18.9168 16.0678 20.2766 19.3282C20.5696 20.0333 19.9958 20.8 19.2188 20.8ZM7.50834 7.59999C7.50834 5.17339 9.5239 3.19998 11.9998 3.19998C14.4769 3.19998 16.4914 5.17339 16.4914 7.59999C16.4914 10.0266 14.4769 12 11.9998 12C9.5239 12 7.50834 10.0266 7.50834 7.59999ZM22.9513 20.3996C22.1349 16.7047 19.5815 13.9778 16.2207 12.7403C18.0016 11.3356 19.0403 9.06403 18.6585 6.57693C18.2161 3.69163 15.766 1.38277 12.8083 1.04617C8.72554 0.580874 5.26258 3.69389 5.26258 7.59999C5.26258 9.67899 6.24622 11.5314 7.78007 12.7403C4.41818 13.9778 1.86588 16.7047 1.04843 20.3996C0.751987 21.7427 1.8569 23 3.25937 23H20.7403C22.1439 23 23.2488 21.7427 22.9513 20.3996Z" fill="#212121"/>
</svg>
