<svg width="33" height="33" viewBox="0 0 33 33" fill="none" xmlns="http://www.w3.org/2000/svg">
<g clip-path="url(#clip0_129_1378)">
<path fill-rule="evenodd" clip-rule="evenodd" d="M16.4298 32.1797C3.3118 26.4555 2 16.9151 2 6.14245C2 -1.8476 30.8993 -1.7681 30.8993 6.14245C30.8993 16.9151 29.5875 26.4555 16.4298 32.1797ZM8.99627 12.8605H14.4025V7.4145H18.4969V12.8605H23.9031V16.9151H18.4969V22.3213H14.4025V16.9151H8.99627V12.8605ZM16.4298 29.5958C26.9242 24.6667 28.554 17.1139 28.554 6.14245C28.554 6.06295 28.554 6.0232 28.5143 5.94369C28.1962 4.8704 25.9304 3.99587 25.0161 3.71761C22.3528 2.84308 19.2522 2.52506 16.4298 2.52506C13.6472 2.52506 10.5863 2.84308 7.88322 3.67786C6.92919 3.99587 4.7031 4.8704 4.38509 5.90394C4.34534 5.98344 4.34534 6.06295 4.34534 6.14245C4.34534 17.1139 5.9354 24.6667 16.4298 29.5958ZM16.4298 30.7089C27.6795 25.5809 29.5478 17.7101 29.5478 6.14245C29.5478 5.98344 29.5478 5.82444 29.4683 5.66543C29.031 4.15488 26.6459 3.16109 25.3341 2.72382C22.5515 1.84929 19.3317 1.53128 16.4298 1.53128C13.5677 1.53128 10.3478 1.84929 7.56521 2.72382C6.25341 3.16109 3.86832 4.11512 3.3913 5.62568C3.35155 5.78469 3.3118 5.98344 3.3118 6.14245C3.3118 17.7101 5.18012 25.5809 16.4298 30.7089Z" fill="#212121"/>
</g>
<defs>
<clipPath id="clip0_129_1378">
<rect width="32" height="32" fill="white" transform="translate(0.833344 0.179688)"/>
</clipPath>
</defs>
</svg>
