<svg width="101" height="100" viewBox="0 0 101 100" fill="none" xmlns="http://www.w3.org/2000/svg">
<path d="M45.0903 15.619L10.7246 74.991C10.1747 75.941 9.8847 77.0191 9.88379 78.1168C9.88288 79.2145 10.1711 80.2931 10.7194 81.244C11.2677 82.195 12.0568 82.9847 13.0073 83.5338C13.9578 84.0829 15.0361 84.372 16.1338 84.372H84.8652C85.9629 84.372 87.0413 84.0829 87.9918 83.5338C88.9422 82.9847 89.7313 82.195 90.2797 81.244C90.828 80.2931 91.1162 79.2145 91.1153 78.1168C91.1144 77.0191 90.8244 75.941 90.2745 74.991L55.9087 15.619C55.3597 14.6705 54.5709 13.8831 53.6215 13.3356C52.6721 12.7882 51.5955 12.5 50.4995 12.5C49.4036 12.5 48.3269 12.7882 47.3775 13.3356C46.4281 13.8831 45.6393 14.6705 45.0903 15.619Z" fill="#FED046"/>
<path d="M47.3746 56.25V43.75C47.3746 42.9212 47.7038 42.1264 48.2899 41.5403C48.8759 40.9543 49.6708 40.625 50.4996 40.625C51.3284 40.625 52.1232 40.9543 52.7093 41.5403C53.2953 42.1264 53.6246 42.9212 53.6246 43.75V56.25C53.6246 57.0788 53.2953 57.8737 52.7093 58.4597C52.1232 59.0458 51.3284 59.375 50.4996 59.375C49.6708 59.375 48.8759 59.0458 48.2899 58.4597C47.7038 57.8737 47.3746 57.0788 47.3746 56.25ZM92.9869 82.8051C92.172 84.2381 90.9901 85.4281 89.5626 86.2527C88.1352 87.0774 86.5139 87.5068 84.8654 87.497H16.1337C14.4872 87.497 12.8698 87.0633 11.4441 86.2397C10.0184 85.416 8.83473 84.2314 8.01225 82.8051C7.18977 81.3787 6.75745 79.7609 6.75879 78.1143C6.76014 76.4678 7.19509 74.8507 8.0199 73.4257L42.3857 14.0535C43.2093 12.6308 44.3924 11.4496 45.8165 10.6284C47.2407 9.80726 48.8557 9.375 50.4996 9.375C52.1435 9.375 53.7585 9.80726 55.1826 10.6284C56.6068 11.4496 57.7899 12.6308 58.6135 14.0535L92.9793 73.4255C93.8137 74.8473 94.2542 76.4657 94.2556 78.1143C94.2569 79.7628 93.819 81.3819 92.9869 82.8051ZM87.5701 76.5564L53.2042 17.1845C52.9297 16.7102 52.5353 16.3165 52.0606 16.0428C51.5859 15.7691 51.0475 15.625 50.4996 15.625C49.9516 15.625 49.4133 15.7691 48.9386 16.0428C48.4639 16.3165 48.0695 16.7102 47.795 17.1845L13.4291 76.5564C13.1543 77.0314 13.0093 77.5705 13.0089 78.1193C13.0085 78.6681 13.1526 79.2074 13.4268 79.6828C13.7009 80.1582 14.0954 80.5531 14.5706 80.8277C15.0458 81.1023 15.5849 81.2469 16.1337 81.247H84.8654C85.4143 81.2469 85.9534 81.1023 86.4286 80.8277C86.9038 80.5531 87.2983 80.1582 87.5724 79.6828C87.8466 79.2074 87.9907 78.6681 87.9903 78.1193C87.9898 77.5705 87.8449 77.0315 87.5701 76.5564ZM50.4996 65.625C49.5725 65.625 48.6662 65.8999 47.8954 66.415C47.1245 66.9301 46.5237 67.6622 46.1689 68.5187C45.8141 69.3752 45.7213 70.3177 45.9022 71.227C46.083 72.1363 46.5295 72.9715 47.185 73.6271C47.8406 74.2826 48.6758 74.7291 49.5851 74.9099C50.4944 75.0908 51.4369 74.998 52.2934 74.6432C53.1499 74.2884 53.882 73.6876 54.3971 72.9167C54.9122 72.1459 55.1871 71.2396 55.1871 70.3125C55.1871 69.0693 54.6932 67.877 53.8141 66.998C52.9351 66.1189 51.7428 65.625 50.4996 65.625Z" fill="#212121"/>
</svg>
